<svg xmlns="http://www.w3.org/2000/svg" xmlns:xlink="http://www.w3.org/1999/xlink" viewBox="0 0 549.13 120.93"><defs><style>.cls-1{fill:none;}.cls-2{fill:#f48d9f;}.cls-3{fill:#d58e2a;}.cls-4{font-size:100px;font-family:AllenoireFreePersonal-Regular, Allenoire Free Personal;fill:url(#New_Pattern_Swatch_2);}.cls-5{letter-spacing:-0.05em;}.cls-6{letter-spacing:-0.02em;}.cls-7{fill:url(#New_Pattern_Swatch_4);}</style><pattern id="New_Pattern_Swatch_2" data-name="New Pattern Swatch 2" width="156.94" height="156.94" patternUnits="userSpaceOnUse" viewBox="0 0 156.94 156.94"><rect class="cls-1" width="156.94" height="156.94"/><rect class="cls-2" width="156.94" height="156.94"/></pattern><pattern id="New_Pattern_Swatch_4" data-name="New Pattern Swatch 4" width="156.94" height="156.94" patternUnits="userSpaceOnUse" viewBox="0 0 156.94 156.94"><rect class="cls-1" width="156.94" height="156.94"/><rect class="cls-3" width="156.94" height="156.94"/></pattern></defs><g id="Layer_2" data-name="Layer 2"><g id="Layer_1-2" data-name="Layer 1"><text class="cls-4" transform="translate(105.24 95.83)"><tspan class="cls-5">T</tspan><tspan x="60.2" y="0">a</tspan><tspan class="cls-6" x="120.4" y="0">r</tspan><tspan x="174.7" y="0">aDoc </tspan></text><path class="cls-7" d="M57.71,56.79c6.33,0,6.41-6.42,6.41-6.42s-.05-6.51,6.52-6.51,6.41-6.24,6.41-6.4h0c0-6.77-6.41-6.42-6.41-6.42s-6.52.53-6.52-6.51c0-6.7-6.41-6.42-6.41-6.42-6.34,0-6.42,6.42-6.42,6.42S51.34,31,44.78,31s-6.42,6.24-6.42,6.4h0c0,6.72,6.42,6.42,6.42,6.42s6.51-.53,6.51,6.51C51.29,57.07,57.71,56.79,57.71,56.79Z"/><path class="cls-7" d="M25.24,94.84c8.27,0,8.37-8.37,8.37-8.37S33.54,78,42.11,78s8.38-8.14,8.37-8.35h0c0-8.82-8.37-8.36-8.37-8.36s-8.51.68-8.51-8.51c0-8.73-8.37-8.37-8.37-8.37-8.26,0-8.37,8.37-8.37,8.37s.07,8.51-8.5,8.51S0,69.39,0,69.59H0C0,78.35,8.37,78,8.37,78s8.5-.69,8.5,8.51C16.87,95.2,25.24,94.84,25.24,94.84Z"/><path class="cls-7" d="M25.24,29c4.75,0,4.81-4.81,4.81-4.81s0-4.88,4.88-4.88,4.81-4.68,4.81-4.8h0a4.5,4.5,0,0,0-4.81-4.8,4.48,4.48,0,0,1-4.88-4.88A4.54,4.54,0,0,0,25.24,0c-4.74,0-4.8,4.81-4.8,4.81s0,4.88-4.88,4.88a4.56,4.56,0,0,0-4.81,4.79h0a4.53,4.53,0,0,0,4.8,4.81,4.48,4.48,0,0,1,4.89,4.88A4.54,4.54,0,0,0,25.24,29Z"/></g></g></svg>