<svg xmlns="http://www.w3.org/2000/svg" width="67.5" viewBox="0 0 67.5 67.5" height="67.5" version="1.0"><defs><clipPath id="a"><path d="M 17.386719 40.226562 L 50.378906 40.226562 L 50.378906 56.292969 L 17.386719 56.292969 Z M 17.386719 40.226562"/></clipPath><clipPath id="b"><path d="M 25.25 40.714844 L 32.863281 40.714844 L 32.863281 56.292969 L 25.25 56.292969 Z M 25.25 40.714844"/></clipPath><clipPath id="c"><path d="M 34.828125 40.714844 L 42.566406 40.714844 L 42.566406 56.292969 L 34.828125 56.292969 Z M 34.828125 40.714844"/></clipPath><clipPath id="d"><path d="M 20 11.292969 L 47 11.292969 L 47 39 L 20 39 Z M 20 11.292969"/></clipPath></defs><path fill="#DB238C" d="M 25.746094 52.34375 C 25.734375 52.34375 25.726562 52.34375 25.714844 52.34375 C 25.6875 52.105469 25.664062 51.945312 25.644531 51.792969 C 25.257812 48.6875 25.0625 47.132812 23.804688 47.152344 C 22.535156 47.171875 22.347656 48.675781 21.976562 51.683594 C 21.953125 51.875 21.929688 52.070312 21.894531 52.34375 C 21.882812 52.34375 21.867188 52.34375 21.855469 52.34375 L 21.855469 52.628906 L 21.894531 52.34375 C 22.265625 52.363281 22.5625 52.667969 22.5625 53.046875 C 22.5625 53.433594 22.246094 53.75 21.855469 53.75 L 21.097656 53.75 C 21.0625 53.75 21.03125 53.746094 21 53.742188 C 20.609375 53.691406 20.339844 53.339844 20.390625 52.953125 C 20.425781 52.683594 20.5 52.082031 20.574219 51.515625 C 21.046875 47.695312 21.28125 45.792969 23.78125 45.75 C 26.308594 45.710938 26.554688 47.683594 27.050781 51.625 C 27.113281 52.136719 27.183594 52.671875 27.210938 52.898438 C 27.222656 52.945312 27.226562 52.992188 27.226562 53.046875 C 27.226562 53.433594 26.910156 53.75 26.519531 53.75 L 25.746094 53.75 C 25.355469 53.75 25.035156 53.433594 25.035156 53.046875 C 25.035156 52.667969 25.339844 52.359375 25.714844 52.34375 L 25.746094 52.558594 L 25.746094 52.34375"/><path fill="#DB238C" d="M 22.496094 53.984375 C 22.890625 53.984375 23.210938 53.664062 23.210938 53.273438 L 23.210938 52.816406 C 23.210938 52.425781 22.890625 52.109375 22.496094 52.109375 C 22.101562 52.109375 21.78125 52.425781 21.78125 52.816406 L 21.78125 53.273438 C 21.78125 53.664062 22.101562 53.984375 22.496094 53.984375" fill-rule="evenodd"/><path fill="#DB238C" d="M 25.105469 53.984375 C 25.5 53.984375 25.820312 53.664062 25.820312 53.273438 L 25.820312 52.816406 C 25.820312 52.425781 25.5 52.109375 25.105469 52.109375 C 24.714844 52.109375 24.390625 52.425781 24.390625 52.816406 L 24.390625 53.273438 C 24.390625 53.664062 24.714844 53.984375 25.105469 53.984375" fill-rule="evenodd"/><g clip-path="url(#a)"><path fill="#DB238C" d="M 38.328125 40.324219 C 37.941406 40.269531 37.582031 40.539062 37.53125 40.921875 C 37.476562 41.304688 37.746094 41.660156 38.132812 41.710938 L 44.09375 42.550781 C 45.480469 42.742188 46.742188 43.386719 47.632812 44.375 C 48.457031 45.285156 48.964844 46.492188 48.964844 47.917969 L 48.964844 54.890625 L 18.800781 54.890625 L 18.800781 47.917969 C 18.800781 46.5 19.308594 45.300781 20.125 44.398438 C 21.019531 43.40625 22.285156 42.761719 23.683594 42.550781 L 29.457031 41.671875 C 29.84375 41.613281 30.109375 41.257812 30.050781 40.871094 C 29.992188 40.488281 29.632812 40.226562 29.246094 40.28125 L 23.472656 41.160156 C 21.757812 41.417969 20.1875 42.222656 19.074219 43.457031 C 18.03125 44.609375 17.386719 46.128906 17.386719 47.917969 L 17.386719 55.59375 C 17.386719 55.980469 17.703125 56.296875 18.09375 56.296875 L 49.671875 56.296875 C 50.0625 56.296875 50.378906 55.980469 50.378906 55.59375 L 50.378906 47.917969 C 50.378906 46.125 49.730469 44.59375 48.683594 43.433594 C 47.570312 42.203125 46.003906 41.402344 44.285156 41.160156 L 38.328125 40.324219"/></g><g clip-path="url(#b)"><path fill="#DB238C" d="M 26.550781 41.0625 C 26.289062 40.773438 25.84375 40.75 25.554688 41.011719 C 25.261719 41.269531 25.238281 41.714844 25.5 42.003906 L 31.421875 48.523438 L 31.421875 55.59375 C 31.421875 55.980469 31.738281 56.296875 32.128906 56.296875 C 32.519531 56.296875 32.835938 55.980469 32.835938 55.59375 L 32.835938 48.253906 C 32.835938 48.085938 32.777344 47.917969 32.65625 47.785156 L 32.652344 47.785156 L 26.550781 41.0625"/></g><g clip-path="url(#c)"><path fill="#DB238C" d="M 42.265625 42.003906 C 42.527344 41.714844 42.503906 41.269531 42.210938 41.011719 C 41.921875 40.75 41.476562 40.773438 41.214844 41.0625 L 35.113281 47.785156 L 35.109375 47.785156 C 34.988281 47.917969 34.929688 48.085938 34.929688 48.253906 L 34.929688 55.59375 C 34.929688 55.980469 35.246094 56.296875 35.636719 56.296875 C 36.027344 56.296875 36.34375 55.980469 36.34375 55.59375 L 36.34375 48.523438 L 42.265625 42.003906"/></g><g clip-path="url(#d)"><path fill="#DB238C" d="M 29.589844 38.1875 C 29.941406 38.023438 30.09375 37.609375 29.929688 37.257812 C 29.761719 36.90625 29.34375 36.757812 28.992188 36.917969 C 27.875 37.4375 26.894531 37.375 26.0625 36.890625 C 25.144531 36.355469 24.371094 35.308594 23.761719 33.949219 C 23.125 32.53125 22.683594 30.78125 22.457031 28.910156 C 21.851562 23.890625 22.804688 18.078125 25.75 15.414062 C 27.753906 13.605469 30.613281 12.699219 33.480469 12.699219 C 36.351562 12.699219 39.210938 13.605469 41.210938 15.414062 C 44.164062 18.082031 45.261719 23.902344 44.816406 28.929688 C 44.644531 30.816406 44.257812 32.585938 43.660156 34.019531 C 43.097656 35.382812 42.359375 36.425781 41.464844 36.949219 C 40.710938 37.390625 39.8125 37.460938 38.777344 37.019531 C 38.421875 36.867188 38.003906 37.03125 37.851562 37.390625 C 37.699219 37.746094 37.867188 38.15625 38.226562 38.308594 C 39.71875 38.945312 41.042969 38.828125 42.183594 38.160156 C 43.355469 37.472656 44.289062 36.191406 44.964844 34.554688 C 45.613281 32.988281 46.039062 31.078125 46.21875 29.050781 C 46.699219 23.65625 45.457031 17.351562 42.164062 14.375 C 39.890625 12.320312 36.679688 11.292969 33.480469 11.292969 C 30.28125 11.292969 27.074219 12.320312 24.800781 14.375 C 21.496094 17.363281 20.402344 23.679688 21.050781 29.074219 C 21.292969 31.074219 21.773438 32.964844 22.472656 34.519531 C 23.195312 36.136719 24.164062 37.40625 25.351562 38.101562 C 26.578125 38.816406 28 38.925781 29.589844 38.1875"/></g><path fill="#DB238C" d="M 35.980469 19.414062 C 34.9375 20.398438 31.605469 23.304688 28.070312 23.800781 C 27.027344 23.945312 26.484375 24.820312 26.351562 26.007812 C 26.242188 26.980469 26.390625 28.140625 26.75 29.320312 C 27.117188 30.515625 27.703125 31.730469 28.464844 32.789062 C 30.070312 35.019531 32.46875 36.523438 35.199219 35.5625 C 37.125 34.878906 38.992188 32.59375 39.96875 29.886719 C 40.34375 28.839844 40.582031 27.746094 40.636719 26.664062 C 40.6875 25.59375 40.5625 24.535156 40.210938 23.550781 C 39.597656 21.832031 38.273438 20.335938 35.980469 19.414062 Z M 27.878906 22.410156 C 31.441406 21.914062 34.878906 18.535156 35.269531 18.144531 C 35.453125 17.925781 35.761719 17.832031 36.050781 17.933594 C 39.046875 19 40.757812 20.886719 41.542969 23.085938 C 41.957031 24.242188 42.109375 25.484375 42.046875 26.726562 C 41.984375 27.960938 41.71875 29.195312 41.300781 30.359375 C 40.191406 33.433594 37.988281 36.066406 35.667969 36.886719 C 32.214844 38.105469 29.257812 36.304688 27.316406 33.609375 C 26.46875 32.429688 25.8125 31.074219 25.402344 29.726562 C 24.984375 28.363281 24.816406 27.011719 24.945312 25.855469 C 25.152344 24.019531 26.074219 22.660156 27.878906 22.410156"/><path fill="#DB238C" d="M 30.144531 45.367188 C 29.753906 45.367188 29.4375 45.679688 29.4375 46.070312 C 29.4375 46.457031 29.753906 46.773438 30.144531 46.773438 L 37.359375 46.773438 C 37.75 46.773438 38.066406 46.457031 38.066406 46.070312 C 38.066406 45.679688 37.75 45.367188 37.359375 45.367188 L 30.144531 45.367188"/><path fill="#DB238C" d="M 30.628906 35.375 C 30.667969 34.988281 30.386719 34.644531 29.996094 34.609375 C 29.609375 34.570312 29.265625 34.851562 29.226562 35.238281 L 28.648438 40.910156 C 28.613281 41.292969 28.894531 41.636719 29.28125 41.675781 C 29.671875 41.710938 30.015625 41.429688 30.054688 41.046875 L 30.628906 35.375"/><path fill="#DB238C" d="M 38.371094 34.710938 C 38.335938 34.328125 37.996094 34.042969 37.605469 34.074219 C 37.21875 34.109375 36.933594 34.449219 36.964844 34.832031 L 37.527344 41.078125 C 37.5625 41.464844 37.902344 41.75 38.289062 41.714844 C 38.679688 41.683594 38.964844 41.34375 38.929688 40.957031 L 38.371094 34.710938"/><path fill="#DB238C" d="M 44.175781 54.746094 C 43.460938 54.746094 42.816406 54.457031 42.347656 53.992188 C 41.878906 53.527344 41.589844 52.882812 41.589844 52.171875 C 41.589844 51.460938 41.878906 50.820312 42.347656 50.355469 C 42.816406 49.886719 43.460938 49.601562 44.175781 49.601562 C 44.890625 49.601562 45.539062 49.886719 46.007812 50.355469 C 46.472656 50.820312 46.761719 51.460938 46.761719 52.171875 C 46.761719 52.882812 46.472656 53.527344 46.007812 53.992188 C 45.539062 54.457031 44.890625 54.746094 44.175781 54.746094 Z M 43.347656 52.996094 C 43.558594 53.207031 43.851562 53.339844 44.175781 53.339844 C 44.5 53.339844 44.792969 53.207031 45.003906 52.996094 C 45.21875 52.785156 45.347656 52.496094 45.347656 52.171875 C 45.347656 51.851562 45.21875 51.558594 45.003906 51.347656 C 44.792969 51.136719 44.5 51.007812 44.175781 51.007812 C 43.851562 51.007812 43.558594 51.136719 43.347656 51.347656 C 43.132812 51.558594 43.003906 51.851562 43.003906 52.171875 C 43.003906 52.496094 43.132812 52.785156 43.347656 52.996094"/><path fill="#DB238C" d="M 44.175781 52.875 C 44.566406 52.875 44.882812 52.558594 44.882812 52.171875 C 44.882812 51.785156 44.566406 51.46875 44.175781 51.46875 C 43.785156 51.46875 43.46875 51.785156 43.46875 52.171875 C 43.46875 52.558594 43.785156 52.875 44.175781 52.875" fill-rule="evenodd"/><path fill="#DB238C" d="M 43.472656 50.304688 C 43.472656 50.691406 43.789062 51.003906 44.175781 51.003906 C 44.566406 51.003906 44.878906 50.691406 44.878906 50.304688 L 44.886719 47.53125 C 44.890625 45.5 44.324219 43.59375 43.335938 41.96875 C 42.3125 40.28125 40.839844 38.890625 39.085938 37.964844 C 38.742188 37.78125 38.3125 37.910156 38.128906 38.253906 C 37.945312 38.597656 38.078125 39.023438 38.421875 39.203125 C 39.953125 40.011719 41.234375 41.222656 42.128906 42.691406 C 42.988281 44.109375 43.480469 45.765625 43.476562 47.53125 Z M 29.304688 39.351562 C 29.640625 39.15625 29.757812 38.730469 29.566406 38.390625 C 29.371094 38.054688 28.941406 37.9375 28.601562 38.132812 C 27.097656 38.988281 25.816406 40.195312 24.871094 41.632812 C 23.949219 43.03125 23.34375 44.660156 23.160156 46.40625 C 23.121094 46.792969 23.402344 47.136719 23.789062 47.175781 C 24.179688 47.214844 24.523438 46.9375 24.5625 46.550781 C 24.722656 45.035156 25.25 43.621094 26.054688 42.402344 C 26.878906 41.148438 27.992188 40.097656 29.304688 39.351562"/></svg>