<svg xmlns="http://www.w3.org/2000/svg" width="67.5" viewBox="0 0 67.5 67.5" height="67.5" version="1.0"><defs><clipPath id="a"><path d="M 24 14.257812 L 46 14.257812 L 46 54 L 24 54 Z M 24 14.257812"/></clipPath><clipPath id="b"><path d="M 13.570312 24.753906 L 37.542969 24.753906 L 37.542969 60.753906 L 13.570312 60.753906 Z M 13.570312 24.753906"/></clipPath><clipPath id="c"><path d="M 46.105469 16.59375 L 54.058594 16.59375 L 54.058594 25.226562 L 46.105469 25.226562 Z M 46.105469 16.59375"/></clipPath></defs><path fill="#DB238C" d="M 34.832031 20.675781 C 35.164062 20.679688 35.484375 20.707031 35.785156 20.757812 C 36 20.789062 36.148438 20.992188 36.113281 21.207031 C 36.082031 21.398438 35.914062 21.539062 35.722656 21.539062 C 35.703125 21.539062 35.683594 21.535156 35.660156 21.53125 C 35.398438 21.492188 35.113281 21.464844 34.820312 21.460938 C 34.601562 21.457031 34.429688 21.277344 34.433594 21.0625 C 34.4375 20.84375 34.617188 20.671875 34.832031 20.675781 Z M 30.28125 24.945312 C 30.457031 24.347656 30.972656 23.097656 32.398438 22.421875 C 32.503906 22.371094 32.625 22.371094 32.734375 22.421875 C 32.839844 22.46875 32.917969 22.5625 32.949219 22.675781 C 33.191406 23.59375 34.058594 24.484375 35.203125 25 C 36.417969 25.546875 37.738281 25.570312 38.875 25.085938 C 38.828125 24.433594 38.566406 22.929688 37.191406 22.074219 C 37.003906 21.960938 36.949219 21.71875 37.0625 21.535156 C 37.175781 21.347656 37.421875 21.292969 37.605469 21.40625 C 38.980469 22.257812 39.554688 23.726562 39.65625 24.945312 L 39.71875 24.945312 C 39.726562 24.945312 39.730469 24.945312 39.734375 24.945312 C 39.8125 24.5625 39.910156 23.808594 39.832031 22.679688 C 39.777344 21.886719 39.457031 21.054688 38.957031 20.40625 C 38.1875 19.410156 36.78125 19.097656 35.613281 19.660156 C 35.183594 19.871094 34.691406 19.871094 34.257812 19.660156 C 33.039062 19.070312 31.601562 19.429688 30.832031 20.507812 C 30.382812 21.132812 30.101562 21.90625 30.039062 22.683594 C 29.949219 23.847656 30.046875 24.582031 30.128906 24.945312 C 30.136719 24.945312 30.144531 24.945312 30.152344 24.945312 L 30.28125 24.945312"/><path fill="#DB238C" d="M 38.882812 27.941406 L 38.882812 25.929688 C 38.339844 26.121094 37.765625 26.21875 37.179688 26.21875 C 36.410156 26.21875 35.628906 26.050781 34.878906 25.71875 C 33.710938 25.191406 32.78125 24.3125 32.351562 23.347656 C 31.277344 24.054688 31.023438 25.183594 30.988281 25.371094 L 30.988281 27.941406 C 30.988281 30.113281 32.761719 31.878906 34.9375 31.878906 C 37.113281 31.878906 38.882812 30.113281 38.882812 27.941406"/><path fill="#DB238C" d="M 39.71875 25.730469 L 39.671875 25.730469 L 39.671875 27.558594 L 39.71875 27.558594 C 40.226562 27.558594 40.636719 27.148438 40.636719 26.644531 C 40.636719 26.140625 40.226562 25.730469 39.71875 25.730469"/><path fill="#DB238C" d="M 39.824219 32.199219 L 39.824219 28.339844 C 39.789062 28.339844 39.753906 28.34375 39.71875 28.34375 L 39.652344 28.34375 C 39.503906 30.097656 38.390625 31.582031 36.84375 32.261719 L 36.84375 32.59375 L 39.429688 32.59375 C 39.648438 32.59375 39.824219 32.417969 39.824219 32.199219"/><path fill="#DB238C" d="M 30.441406 32.59375 L 33.023438 32.59375 L 33.023438 32.261719 C 31.480469 31.578125 30.371094 30.097656 30.21875 28.34375 L 30.152344 28.34375 C 30.117188 28.34375 30.082031 28.339844 30.046875 28.339844 L 30.046875 32.199219 C 30.046875 32.417969 30.226562 32.59375 30.441406 32.59375"/><path fill="#DB238C" d="M 30.152344 27.558594 L 30.199219 27.558594 L 30.199219 25.730469 L 30.152344 25.730469 C 29.648438 25.730469 29.238281 26.140625 29.238281 26.644531 C 29.238281 27.148438 29.648438 27.558594 30.152344 27.558594"/><g clip-path="url(#a)"><path fill="#DB238C" d="M 35.777344 48.898438 C 35.558594 48.898438 35.382812 48.722656 35.382812 48.507812 L 35.378906 47.128906 C 35.378906 46.914062 35.554688 46.738281 35.773438 46.738281 C 35.992188 46.738281 36.167969 46.914062 36.167969 47.128906 L 36.171875 48.503906 C 36.171875 48.722656 35.996094 48.898438 35.777344 48.898438 Z M 29.246094 15.273438 C 29.390625 15.109375 29.640625 15.089844 29.804688 15.230469 L 30.515625 15.84375 C 30.742188 16.042969 31.316406 16.242188 32.078125 16.242188 L 37.792969 16.242188 C 38.554688 16.242188 39.125 16.042969 39.351562 15.84375 L 40.066406 15.230469 C 40.226562 15.089844 40.476562 15.109375 40.621094 15.273438 C 40.761719 15.4375 40.742188 15.683594 40.582031 15.828125 L 39.867188 16.441406 C 39.441406 16.808594 38.664062 17.027344 37.792969 17.027344 L 32.078125 17.027344 C 31.203125 17.027344 30.429688 16.808594 30 16.441406 L 29.289062 15.828125 C 29.125 15.683594 29.105469 15.4375 29.246094 15.273438 Z M 44.558594 42.722656 C 44.382812 42.6875 44.222656 42.824219 44.226562 43.003906 L 44.351562 48.929688 C 44.359375 49.144531 44.183594 49.320312 43.96875 49.324219 L 43.960938 49.324219 C 43.746094 49.328125 43.570312 49.160156 43.566406 48.945312 L 43.414062 42.074219 C 43.375 42.035156 43.335938 41.992188 43.300781 41.949219 C 42.914062 41.492188 42.730469 40.933594 42.730469 40.378906 C 42.730469 39.921875 42.855469 39.464844 43.105469 39.066406 C 43.167969 38.972656 43.191406 38.859375 43.152344 38.75 C 42.757812 37.589844 41.855469 36.660156 40.683594 36.238281 L 40.59375 36.207031 C 40.976562 37.492188 40.835938 38.734375 40.730469 39.3125 C 41.394531 39.652344 41.824219 40.390625 41.699219 41.207031 C 41.589844 41.949219 41.007812 42.5625 40.265625 42.710938 C 38.820312 42.992188 37.585938 41.550781 38.273438 40.078125 C 38.566406 39.445312 39.230469 39.09375 39.929688 39.113281 C 39.941406 39.113281 39.953125 39.113281 39.960938 39.117188 C 40.066406 38.492188 40.191406 37.117188 39.625 35.855469 L 38.601562 35.480469 L 38.996094 36.078125 C 39.402344 36.679688 39.277344 37.492188 38.707031 37.945312 L 35.953125 40.132812 C 36.085938 40.472656 36.164062 40.828125 36.164062 41.195312 L 36.164062 41.203125 L 36.167969 45.289062 C 36.167969 45.507812 35.992188 45.683594 35.773438 45.683594 C 35.554688 45.683594 35.378906 45.507812 35.378906 45.289062 L 35.375 41.390625 L 31.070312 37.976562 C 30.503906 37.523438 30.375 36.710938 30.78125 36.109375 L 31.179688 35.511719 L 30.140625 35.890625 C 29.84375 36.707031 29.738281 37.785156 29.777344 38.574219 C 31.730469 38.820312 33.308594 42.367188 33.554688 44.433594 C 33.566406 44.539062 33.535156 44.640625 33.472656 44.722656 C 33.40625 44.804688 33.3125 44.855469 33.207031 44.871094 L 32.117188 45 C 31.898438 45.023438 31.703125 44.871094 31.675781 44.65625 C 31.652344 44.4375 31.804688 44.242188 32.023438 44.21875 L 32.710938 44.136719 C 32.328125 42.074219 30.785156 39.195312 29.460938 39.355469 C 28.128906 39.507812 27.3125 42.664062 27.421875 44.761719 L 28.25 44.664062 C 28.464844 44.636719 28.660156 44.792969 28.6875 45.007812 C 28.714844 45.222656 28.558594 45.417969 28.34375 45.445312 L 27.105469 45.589844 C 27.089844 45.589844 27.074219 45.589844 27.0625 45.589844 C 26.972656 45.589844 26.886719 45.5625 26.816406 45.507812 C 26.734375 45.441406 26.679688 45.347656 26.671875 45.246094 C 26.421875 43.167969 27.136719 39.332031 28.992188 38.660156 C 28.949219 37.953125 29.015625 37.042969 29.21875 36.226562 L 28.753906 36.394531 C 27.332031 36.910156 26.550781 38.296875 26.503906 39.808594 C 26.496094 40.023438 26.320312 40.1875 26.109375 40.1875 L 26.085938 40.1875 C 25.863281 40.175781 25.703125 39.96875 25.714844 39.746094 C 25.84375 37.824219 27.097656 36.15625 28.914062 35.496094 L 29.675781 35.222656 C 29.683594 35.21875 29.6875 35.21875 29.695312 35.214844 L 32.746094 34.109375 C 32.914062 34.046875 33.023438 33.886719 33.023438 33.710938 L 33.023438 33.378906 L 30.441406 33.378906 C 29.789062 33.378906 29.257812 32.851562 29.257812 32.199219 L 29.257812 28.089844 C 28.773438 27.789062 28.449219 27.253906 28.449219 26.644531 C 28.449219 25.992188 28.820312 25.425781 29.363281 25.140625 C 29.265625 24.703125 29.152344 23.882812 29.253906 22.621094 C 29.328125 21.703125 29.660156 20.789062 30.1875 20.050781 C 31.183594 18.65625 33.035156 18.195312 34.59375 18.953125 C 34.8125 19.054688 35.058594 19.054688 35.269531 18.953125 C 36.773438 18.226562 38.585938 18.636719 39.582031 19.925781 C 40.175781 20.695312 40.554688 21.679688 40.621094 22.628906 C 40.703125 23.863281 40.59375 24.695312 40.5 25.136719 C 41.046875 25.417969 41.425781 25.988281 41.425781 26.644531 C 41.425781 27.253906 41.097656 27.789062 40.613281 28.089844 L 40.613281 32.199219 C 40.613281 32.851562 40.082031 33.378906 39.429688 33.378906 L 36.84375 33.378906 L 36.84375 33.710938 C 36.84375 33.890625 36.957031 34.050781 37.125 34.109375 L 37.734375 34.332031 L 40.042969 35.167969 C 40.042969 35.167969 40.042969 35.167969 40.046875 35.167969 L 40.953125 35.496094 C 42.214844 35.957031 43.214844 36.898438 43.746094 38.101562 C 43.792969 38.203125 43.917969 38.234375 44.003906 38.164062 L 44.679688 37.597656 C 44.753906 37.539062 44.726562 37.417969 44.636719 37.394531 C 44.496094 37.363281 44.359375 37.320312 44.222656 37.265625 C 44.15625 37.238281 44.089844 37.207031 44.023438 37.171875 C 44.019531 37.171875 44.015625 37.167969 44.007812 37.160156 C 43.949219 37.128906 43.890625 37.09375 43.835938 37.058594 C 43.824219 37.050781 43.808594 37.042969 43.800781 37.035156 C 43.746094 37 43.695312 36.964844 43.648438 36.921875 C 43.636719 36.914062 43.628906 36.90625 43.621094 36.898438 C 43.574219 36.863281 43.53125 36.828125 43.492188 36.785156 C 43.472656 36.773438 43.460938 36.757812 43.445312 36.738281 C 43.390625 36.6875 43.34375 36.636719 43.300781 36.582031 C 42.429688 35.542969 42.566406 33.996094 43.605469 33.125 C 43.605469 33.125 43.976562 32.816406 44.433594 32.433594 C 44.609375 32.292969 44.554688 32.019531 44.34375 31.945312 C 43.949219 31.800781 43.585938 31.558594 43.300781 31.214844 C 42.914062 30.757812 42.730469 30.199219 42.730469 29.644531 C 42.730469 28.941406 43.027344 28.242188 43.605469 27.757812 L 45.0625 26.542969 C 45.230469 26.40625 45.324219 26.203125 45.324219 25.984375 C 45.324219 24.320312 45.320312 17.105469 45.320312 17.105469 C 45.320312 15.535156 44.039062 14.257812 42.460938 14.257812 L 27.40625 14.257812 C 25.828125 14.257812 24.546875 15.53125 24.546875 17.105469 L 24.546875 24.234375 C 24.546875 24.492188 24.601562 24.75 24.722656 24.980469 C 24.859375 25.238281 24.980469 25.5625 25.070312 25.964844 C 25.273438 26.875 25.28125 28.015625 25.089844 29.09375 C 25.023438 29.472656 24.875 29.910156 24.675781 30.382812 C 24.589844 30.582031 24.546875 30.796875 24.546875 31.015625 L 24.546875 42.726562 C 26.078125 46.175781 26.679688 48.734375 26.742188 51.136719 C 27.167969 51.441406 27.683594 51.609375 28.210938 51.609375 L 41.65625 51.609375 C 42.242188 51.609375 42.808594 51.40625 43.253906 51.042969 C 43.417969 50.910156 43.667969 50.917969 43.808594 51.070312 C 43.960938 51.238281 43.941406 51.496094 43.765625 51.640625 C 43.175781 52.125 42.425781 52.394531 41.65625 52.394531 L 28.210938 52.394531 C 27.699219 52.394531 27.195312 52.269531 26.738281 52.046875 C 26.71875 52.605469 26.679688 53.160156 26.613281 53.722656 C 26.871094 53.792969 27.136719 53.832031 27.40625 53.832031 L 42.460938 53.832031 C 44.039062 53.832031 45.320312 52.558594 45.320312 50.984375 L 45.320312 43.078125 C 45.320312 42.9375 45.210938 42.816406 45.070312 42.800781 C 44.925781 42.785156 44.734375 42.757812 44.558594 42.722656"/></g><g clip-path="url(#b)"><path fill="#DB238C" d="M 26.507812 54.503906 C 26.464844 54.792969 26.421875 55.082031 26.367188 55.375 C 26.328125 55.589844 26.125 55.730469 25.910156 55.695312 C 25.695312 55.65625 25.554688 55.453125 25.589844 55.238281 C 26.28125 51.347656 26.175781 48.191406 23.648438 42.640625 C 23.15625 41.5625 22.722656 40.628906 22.371094 39.882812 C 21.339844 37.691406 20.914062 36.78125 20.976562 36.214844 C 21.050781 35.535156 21.707031 34.351562 22.464844 32.976562 C 23.25 31.550781 24.140625 29.9375 24.3125 28.957031 C 24.484375 27.992188 24.480469 26.9375 24.300781 26.136719 C 24.195312 25.667969 23.933594 24.867188 23.355469 24.761719 C 22.316406 24.871094 15.925781 33.539062 15.285156 36.71875 C 15.015625 38.046875 15.226562 40.652344 15.429688 43.171875 C 15.691406 46.367188 15.9375 49.382812 15.328125 50.554688 C 14.820312 51.535156 14.285156 52.410156 13.867188 53.050781 C 13.46875 53.664062 13.46875 54.460938 13.886719 55.0625 C 14.726562 56.28125 16.40625 58.121094 19.433594 59.414062 C 22.65625 60.785156 26.636719 60.808594 28.46875 60.730469 C 29.027344 60.707031 29.5625 60.511719 30.019531 60.1875 C 31.472656 59.152344 32.792969 58.539062 33.792969 58.074219 C 34.230469 57.871094 34.609375 57.695312 34.921875 57.523438 C 35.691406 57.097656 36.617188 56.277344 37.382812 55.527344 C 37.722656 55.195312 37.484375 54.621094 37.007812 54.621094 L 27.40625 54.621094 C 27.101562 54.621094 26.800781 54.578125 26.507812 54.503906"/></g><g clip-path="url(#c)"><path fill="#DB238C" d="M 51.3125 16.988281 L 46.628906 20.898438 C 46.296875 21.171875 46.109375 21.578125 46.109375 22.003906 L 46.109375 24.832031 C 46.109375 25.164062 46.496094 25.34375 46.75 25.132812 C 48.539062 23.644531 53.460938 19.542969 53.460938 19.542969 C 54.167969 18.953125 54.261719 17.902344 53.667969 17.195312 C 53.078125 16.492188 52.019531 16.398438 51.3125 16.988281"/></g><path fill="#DB238C" d="M 46.683594 31.585938 L 44.113281 33.730469 C 43.40625 34.320312 43.3125 35.371094 43.90625 36.078125 C 44.476562 36.757812 45.480469 36.867188 46.183594 36.34375 L 46.324219 36.226562 C 46.351562 36.207031 46.378906 36.1875 46.402344 36.167969 L 48.976562 34.019531 C 49.320312 33.734375 49.53125 33.332031 49.570312 32.890625 C 49.609375 32.445312 49.472656 32.011719 49.1875 31.671875 C 48.898438 31.328125 48.496094 31.121094 48.050781 31.082031 C 47.640625 31.042969 47.238281 31.160156 46.910156 31.402344 L 46.765625 31.523438 C 46.738281 31.542969 46.710938 31.566406 46.683594 31.585938"/><path fill="#DB238C" d="M 46.695312 26.207031 L 44.113281 28.359375 C 43.773438 28.648438 43.5625 29.050781 43.523438 29.492188 C 43.480469 29.9375 43.617188 30.367188 43.90625 30.710938 C 44.476562 31.390625 45.480469 31.5 46.183594 30.976562 L 46.324219 30.859375 C 46.351562 30.839844 46.378906 30.820312 46.402344 30.800781 L 48.976562 28.652344 C 49.320312 28.367188 49.53125 27.964844 49.570312 27.519531 C 49.609375 27.078125 49.472656 26.644531 49.1875 26.304688 C 48.898438 25.960938 48.496094 25.75 48.050781 25.710938 C 47.640625 25.675781 47.238281 25.792969 46.910156 26.035156 L 46.765625 26.15625 C 46.742188 26.171875 46.71875 26.1875 46.695312 26.207031"/><path fill="#DB238C" d="M 46.679688 36.953125 L 44.113281 39.097656 C 44.050781 39.148438 43.996094 39.207031 43.941406 39.265625 C 43.9375 39.273438 43.929688 39.277344 43.925781 39.285156 C 43.695312 39.546875 43.554688 39.875 43.523438 40.226562 C 43.480469 40.671875 43.617188 41.105469 43.90625 41.445312 C 43.949219 41.496094 43.992188 41.542969 44.039062 41.585938 C 44.058594 41.601562 44.078125 41.617188 44.09375 41.632812 C 44.703125 42.160156 45.621094 42.1875 46.261719 41.65625 L 48.976562 39.386719 C 49.320312 39.101562 49.53125 38.699219 49.570312 38.257812 C 49.609375 37.8125 49.472656 37.378906 49.1875 37.039062 C 48.898438 36.699219 48.496094 36.488281 48.050781 36.449219 C 47.640625 36.410156 47.238281 36.527344 46.910156 36.769531 L 46.765625 36.890625 C 46.738281 36.914062 46.710938 36.933594 46.679688 36.953125"/><path fill="#DB238C" d="M 31.5625 37.359375 L 35.105469 40.171875 C 35.089844 40.144531 35.074219 40.117188 35.054688 40.085938 C 33.976562 38.351562 32.738281 36.363281 32.167969 35.457031 L 31.4375 36.546875 C 31.261719 36.804688 31.316406 37.164062 31.5625 37.359375"/><path fill="#DB238C" d="M 32.773438 34.9375 C 33.066406 35.402344 33.671875 36.371094 34.929688 38.394531 L 37.019531 34.910156 L 36.855469 34.851562 C 36.378906 34.675781 36.054688 34.21875 36.054688 33.710938 L 36.054688 32.527344 C 35.695312 32.613281 35.324219 32.664062 34.9375 32.664062 C 34.546875 32.664062 34.171875 32.613281 33.8125 32.527344 L 33.8125 33.710938 C 33.8125 34.21875 33.492188 34.675781 33.011719 34.847656 L 32.773438 34.9375"/><path fill="#DB238C" d="M 38.34375 36.515625 L 37.621094 35.4375 L 35.398438 39.144531 C 35.457031 39.238281 35.515625 39.332031 35.574219 39.425781 L 38.214844 37.328125 C 38.460938 37.132812 38.519531 36.777344 38.34375 36.515625"/><path fill="#DB238C" d="M 38.867188 40.929688 C 38.867188 41.496094 39.332031 41.957031 39.898438 41.957031 C 40.46875 41.957031 40.933594 41.496094 40.933594 40.929688 C 40.933594 40.359375 40.46875 39.898438 39.898438 39.898438 C 39.332031 39.898438 38.867188 40.359375 38.867188 40.929688"/></svg>