<svg xmlns="http://www.w3.org/2000/svg" width="67.5" viewBox="0 0 67.5 67.5" height="67.5" version="1.0"><defs><clipPath id="a"><path d="M 15.585938 12.015625 L 39 12.015625 L 39 50 L 15.585938 50 Z M 15.585938 12.015625"/></clipPath><clipPath id="b"><path d="M 27 42 L 51.585938 42 L 51.585938 57.765625 L 27 57.765625 Z M 27 42"/></clipPath></defs><path fill="#DB238C" d="M 23.175781 43.03125 L 18.28125 43.03125 C 18 43.03125 17.769531 42.800781 17.769531 42.519531 C 17.769531 42.238281 18 42.007812 18.28125 42.007812 L 23.175781 42.007812 C 23.457031 42.007812 23.683594 42.238281 23.683594 42.519531 C 23.683594 42.800781 23.457031 43.03125 23.175781 43.03125"/><path fill="#DB238C" d="M 35.613281 16.921875 L 18.28125 16.921875 C 18 16.921875 17.769531 16.695312 17.769531 16.414062 C 17.769531 16.128906 18 15.902344 18.28125 15.902344 L 35.613281 15.902344 C 35.898438 15.902344 36.125 16.128906 36.125 16.414062 C 36.125 16.695312 35.898438 16.921875 35.613281 16.921875"/><g clip-path="url(#a)"><path fill="#DB238C" d="M 23.175781 49.003906 L 18.816406 49.003906 C 17.042969 49.003906 15.597656 47.550781 15.597656 45.765625 L 15.597656 15.367188 C 15.597656 13.582031 17.042969 12.132812 18.816406 12.132812 L 35.078125 12.132812 C 36.855469 12.132812 38.300781 13.582031 38.300781 15.367188 L 38.300781 37.816406 C 38.300781 38.097656 38.074219 38.328125 37.792969 38.328125 C 37.511719 38.328125 37.285156 38.097656 37.285156 37.816406 L 37.285156 15.367188 C 37.285156 14.144531 36.292969 13.152344 35.078125 13.152344 L 18.816406 13.152344 C 17.601562 13.152344 16.613281 14.144531 16.613281 15.367188 L 16.613281 45.765625 C 16.613281 46.988281 17.601562 47.980469 18.816406 47.980469 L 23.175781 47.980469 C 23.457031 47.980469 23.683594 48.210938 23.683594 48.492188 C 23.683594 48.773438 23.457031 49.003906 23.175781 49.003906"/></g><path fill="#DB238C" d="M 29.097656 15.058594 L 24.800781 15.058594 C 24.515625 15.058594 24.289062 14.828125 24.289062 14.546875 C 24.289062 14.265625 24.515625 14.039062 24.800781 14.039062 L 29.097656 14.039062 C 29.378906 14.039062 29.605469 14.265625 29.605469 14.546875 C 29.605469 14.828125 29.378906 15.058594 29.097656 15.058594"/><path fill="#DB238C" d="M 27.359375 40.195312 C 26.839844 40.195312 26.414062 40.625 26.414062 41.144531 C 26.414062 41.667969 26.839844 42.09375 27.359375 42.09375 C 27.878906 42.09375 28.304688 41.667969 28.304688 41.144531 C 28.304688 40.625 27.878906 40.195312 27.359375 40.195312 Z M 27.359375 43.113281 C 26.28125 43.113281 25.398438 42.230469 25.398438 41.144531 C 25.398438 40.058594 26.28125 39.175781 27.359375 39.175781 C 28.441406 39.175781 29.320312 40.058594 29.320312 41.144531 C 29.320312 42.230469 28.441406 43.113281 27.359375 43.113281"/><path fill="#DB238C" d="M 25.402344 38.328125 C 24.457031 38.328125 23.683594 39.101562 23.683594 40.054688 L 23.683594 49.984375 C 23.683594 50.9375 24.457031 51.710938 25.402344 51.710938 L 43.941406 51.710938 C 44.886719 51.710938 45.660156 50.9375 45.660156 49.984375 L 45.660156 40.054688 C 45.660156 39.101562 44.886719 38.328125 43.941406 38.328125 Z M 43.941406 52.734375 L 25.402344 52.734375 C 23.894531 52.734375 22.667969 51.5 22.667969 49.984375 L 22.667969 40.054688 C 22.667969 38.539062 23.894531 37.304688 25.402344 37.304688 L 43.941406 37.304688 C 45.449219 37.304688 46.675781 38.539062 46.675781 40.054688 L 46.675781 49.984375 C 46.675781 51.5 45.449219 52.734375 43.941406 52.734375"/><g clip-path="url(#b)"><path fill="#DB238C" d="M 49.523438 57.652344 L 29.617188 57.652344 C 28.484375 57.652344 27.566406 56.726562 27.566406 55.589844 L 27.566406 52.222656 C 27.566406 51.941406 27.792969 51.710938 28.074219 51.710938 C 28.355469 51.710938 28.582031 51.941406 28.582031 52.222656 L 28.582031 55.589844 C 28.582031 56.164062 29.046875 56.628906 29.617188 56.628906 L 49.523438 56.628906 C 50.09375 56.628906 50.558594 56.164062 50.558594 55.589844 L 50.558594 44.285156 C 50.558594 43.710938 50.09375 43.246094 49.523438 43.246094 L 46.167969 43.246094 C 45.886719 43.246094 45.660156 43.015625 45.660156 42.734375 C 45.660156 42.453125 45.886719 42.222656 46.167969 42.222656 L 49.523438 42.222656 C 50.65625 42.222656 51.574219 43.148438 51.574219 44.285156 L 51.574219 55.589844 C 51.574219 56.726562 50.65625 57.652344 49.523438 57.652344"/></g><path fill="#DB238C" d="M 40.40625 40.195312 C 40.230469 40.195312 40.085938 40.339844 40.085938 40.519531 L 40.085938 41.773438 C 40.085938 41.949219 40.230469 42.09375 40.40625 42.09375 L 42.667969 42.09375 C 42.84375 42.09375 42.984375 41.949219 42.984375 41.773438 L 42.984375 40.519531 C 42.984375 40.339844 42.84375 40.195312 42.667969 40.195312 Z M 42.667969 43.113281 L 40.40625 43.113281 C 39.667969 43.113281 39.070312 42.511719 39.070312 41.773438 L 39.070312 40.519531 C 39.070312 39.78125 39.667969 39.175781 40.40625 39.175781 L 42.667969 39.175781 C 43.402344 39.175781 44.003906 39.78125 44.003906 40.519531 L 44.003906 41.773438 C 44.003906 42.511719 43.402344 43.113281 42.667969 43.113281"/><path fill="#DB238C" d="M 20.175781 31.636719 C 19.894531 31.636719 19.667969 31.40625 19.667969 31.128906 L 19.667969 26.304688 C 19.667969 26.019531 19.894531 25.792969 20.175781 25.792969 C 20.457031 25.792969 20.683594 26.019531 20.683594 26.304688 L 20.683594 31.128906 C 20.683594 31.40625 20.457031 31.636719 20.175781 31.636719"/><path fill="#DB238C" d="M 21.90625 29.519531 L 20.175781 29.519531 C 19.894531 29.519531 19.667969 29.289062 19.667969 29.007812 C 19.667969 28.726562 19.894531 28.496094 20.175781 28.496094 L 21.90625 28.496094 C 22.367188 28.496094 22.746094 28.121094 22.746094 27.65625 C 22.746094 27.191406 22.367188 26.8125 21.90625 26.8125 L 20.175781 26.8125 C 19.894531 26.8125 19.667969 26.582031 19.667969 26.304688 C 19.667969 26.019531 19.894531 25.792969 20.175781 25.792969 L 21.90625 25.792969 C 22.929688 25.792969 23.761719 26.628906 23.761719 27.65625 C 23.761719 28.683594 22.929688 29.519531 21.90625 29.519531"/><path fill="#DB238C" d="M 24.964844 31.636719 C 24.914062 31.636719 24.859375 31.628906 24.804688 31.609375 C 24.539062 31.523438 24.394531 31.234375 24.480469 30.96875 L 26.070312 26.144531 C 26.140625 25.9375 26.328125 25.796875 26.542969 25.792969 C 26.757812 25.785156 26.949219 25.917969 27.027344 26.117188 L 28.890625 30.941406 C 28.992188 31.207031 28.863281 31.5 28.601562 31.601562 C 28.335938 31.703125 28.042969 31.574219 27.941406 31.308594 L 26.589844 27.8125 L 25.445312 31.285156 C 25.378906 31.5 25.179688 31.636719 24.964844 31.636719"/><path fill="#DB238C" d="M 27.800781 30.050781 L 25.488281 30.050781 C 25.207031 30.050781 24.980469 29.820312 24.980469 29.539062 C 24.980469 29.257812 25.207031 29.027344 25.488281 29.027344 L 27.800781 29.027344 C 28.085938 29.027344 28.3125 29.257812 28.3125 29.539062 C 28.3125 29.820312 28.085938 30.050781 27.800781 30.050781"/><path fill="#DB238C" d="M 31.820312 31.636719 C 31.539062 31.636719 31.3125 31.40625 31.3125 31.128906 L 31.3125 28.324219 C 31.3125 28.042969 31.539062 27.8125 31.820312 27.8125 C 32.101562 27.8125 32.328125 28.042969 32.328125 28.324219 L 32.328125 31.128906 C 32.328125 31.40625 32.101562 31.636719 31.820312 31.636719"/><path fill="#DB238C" d="M 31.828125 28.835938 C 31.699219 28.835938 31.566406 28.785156 31.46875 28.683594 L 29.457031 26.664062 C 29.257812 26.464844 29.257812 26.140625 29.457031 25.941406 C 29.652344 25.742188 29.976562 25.742188 30.175781 25.941406 L 31.828125 27.601562 L 33.363281 26.0625 C 33.558594 25.863281 33.882812 25.863281 34.082031 26.0625 C 34.28125 26.261719 34.28125 26.582031 34.082031 26.785156 L 32.1875 28.683594 C 32.089844 28.785156 31.957031 28.835938 31.828125 28.835938"/><path fill="#DB238C" d="M 27.617188 49.003906 C 27.335938 49.003906 27.105469 48.773438 27.105469 48.492188 C 27.105469 48.210938 27.332031 47.980469 27.613281 47.980469 L 27.617188 47.980469 C 27.898438 47.980469 28.125 48.210938 28.125 48.492188 C 28.125 48.773438 27.898438 49.003906 27.617188 49.003906 Z M 30.332031 49.003906 C 30.050781 49.003906 29.824219 48.773438 29.824219 48.492188 C 29.824219 48.210938 30.046875 47.980469 30.328125 47.980469 L 30.332031 47.980469 C 30.613281 47.980469 30.84375 48.210938 30.84375 48.492188 C 30.84375 48.773438 30.613281 49.003906 30.332031 49.003906 Z M 33.046875 49.003906 C 32.769531 49.003906 32.539062 48.773438 32.539062 48.492188 C 32.539062 48.210938 32.765625 47.980469 33.046875 47.980469 C 33.332031 47.980469 33.558594 48.210938 33.558594 48.492188 C 33.558594 48.773438 33.332031 49.003906 33.046875 49.003906 Z M 35.765625 49.003906 C 35.484375 49.003906 35.253906 48.773438 35.253906 48.492188 C 35.253906 48.210938 35.480469 47.980469 35.761719 47.980469 L 35.765625 47.980469 C 36.046875 47.980469 36.273438 48.210938 36.273438 48.492188 C 36.273438 48.773438 36.046875 49.003906 35.765625 49.003906 Z M 38.480469 49.003906 C 38.199219 49.003906 37.96875 48.773438 37.96875 48.492188 C 37.96875 48.210938 38.195312 47.980469 38.476562 47.980469 L 38.480469 47.980469 C 38.761719 47.980469 38.988281 48.210938 38.988281 48.492188 C 38.988281 48.773438 38.761719 49.003906 38.480469 49.003906 Z M 41.195312 49.003906 C 40.914062 49.003906 40.6875 48.773438 40.6875 48.492188 C 40.6875 48.210938 40.914062 47.980469 41.191406 47.980469 L 41.195312 47.980469 C 41.476562 47.980469 41.703125 48.210938 41.703125 48.492188 C 41.703125 48.773438 41.476562 49.003906 41.195312 49.003906"/><path fill="#DB238C" d="M 32.460938 55.378906 C 32.179688 55.378906 31.949219 55.148438 31.949219 54.867188 C 31.949219 54.585938 32.175781 54.355469 32.457031 54.355469 L 32.460938 54.355469 C 32.742188 54.355469 32.96875 54.585938 32.96875 54.867188 C 32.96875 55.148438 32.742188 55.378906 32.460938 55.378906 Z M 35.175781 55.378906 C 34.894531 55.378906 34.664062 55.148438 34.664062 54.867188 C 34.664062 54.585938 34.890625 54.355469 35.171875 54.355469 L 35.175781 54.355469 C 35.457031 54.355469 35.683594 54.585938 35.683594 54.867188 C 35.683594 55.148438 35.457031 55.378906 35.175781 55.378906 Z M 37.890625 55.378906 C 37.609375 55.378906 37.378906 55.148438 37.378906 54.867188 C 37.378906 54.585938 37.609375 54.355469 37.886719 54.355469 L 37.890625 54.355469 C 38.171875 54.355469 38.402344 54.585938 38.402344 54.867188 C 38.402344 55.148438 38.171875 55.378906 37.890625 55.378906 Z M 40.609375 55.378906 C 40.324219 55.378906 40.097656 55.148438 40.097656 54.867188 C 40.097656 54.585938 40.324219 54.355469 40.605469 54.355469 L 40.609375 54.355469 C 40.886719 54.355469 41.117188 54.585938 41.117188 54.867188 C 41.117188 55.148438 40.886719 55.378906 40.609375 55.378906 Z M 43.324219 55.378906 C 43.042969 55.378906 42.8125 55.148438 42.8125 54.867188 C 42.8125 54.585938 43.039062 54.355469 43.320312 54.355469 L 43.324219 54.355469 C 43.605469 54.355469 43.832031 54.585938 43.832031 54.867188 C 43.832031 55.148438 43.605469 55.378906 43.324219 55.378906 Z M 46.039062 55.378906 C 45.757812 55.378906 45.527344 55.148438 45.527344 54.867188 C 45.527344 54.585938 45.753906 54.355469 46.035156 54.355469 L 46.039062 54.355469 C 46.320312 54.355469 46.546875 54.585938 46.546875 54.867188 C 46.546875 55.148438 46.320312 55.378906 46.039062 55.378906"/><path fill="#DB238C" d="M 29.816406 43.113281 C 29.53125 43.113281 29.304688 42.886719 29.304688 42.601562 C 29.304688 42.320312 29.53125 42.09375 29.816406 42.09375 C 30.335938 42.09375 30.757812 41.667969 30.757812 41.144531 C 30.757812 40.625 30.335938 40.195312 29.816406 40.195312 C 29.53125 40.195312 29.304688 39.96875 29.304688 39.6875 C 29.304688 39.40625 29.53125 39.175781 29.816406 39.175781 C 30.898438 39.175781 31.773438 40.058594 31.773438 41.144531 C 31.773438 42.230469 30.898438 43.113281 29.816406 43.113281"/></svg>