<svg xmlns="http://www.w3.org/2000/svg" width="67.5" viewBox="0 0 67.5 67.5" height="67.5" version="1.0"><defs><clipPath id="a"><path d="M 15.5625 13.015625 L 47.8125 13.015625 L 47.8125 54.265625 L 15.5625 54.265625 Z M 15.5625 13.015625"/></clipPath></defs><path fill="#DB238C" d="M 34.6875 38.96875 C 31.308594 38.96875 28.554688 36.207031 28.554688 32.820312 C 28.554688 29.433594 31.308594 26.675781 34.6875 26.675781 C 38.066406 26.675781 40.816406 29.433594 40.816406 32.820312 C 40.816406 36.207031 38.066406 38.96875 34.6875 38.96875 Z M 34.6875 25.308594 C 30.550781 25.308594 27.191406 28.675781 27.191406 32.820312 C 27.191406 36.964844 30.550781 40.332031 34.6875 40.332031 C 38.820312 40.332031 42.179688 36.964844 42.179688 32.820312 C 42.179688 28.675781 38.820312 25.308594 34.6875 25.308594"/><g clip-path="url(#a)"><path fill="#DB238C" d="M 46.269531 18.480469 L 23.105469 18.480469 L 23.105469 17.796875 C 23.105469 15.910156 24.628906 14.382812 26.511719 14.382812 L 42.863281 14.382812 C 44.742188 14.382812 46.269531 15.910156 46.269531 17.796875 Z M 46.269531 47.164062 L 27.792969 47.164062 L 27.269531 45.851562 L 29.488281 42 C 29.847656 41.367188 29.945312 40.625 29.761719 39.921875 C 29.570312 39.21875 29.121094 38.632812 28.488281 38.261719 C 27.859375 37.902344 27.125 37.804688 26.425781 37.992188 C 25.714844 38.183594 25.128906 38.632812 24.769531 39.269531 L 23.105469 42.148438 L 23.105469 19.84375 L 46.269531 19.84375 Z M 46.269531 49.210938 C 46.269531 51.097656 44.742188 52.625 42.863281 52.625 L 28.453125 52.625 C 28.515625 52.226562 28.554688 51.828125 28.554688 51.417969 L 28.554688 50.527344 C 28.554688 49.847656 28.460938 49.175781 28.285156 48.527344 L 46.269531 48.527344 Z M 42.863281 13.015625 L 26.511719 13.015625 C 23.882812 13.015625 21.742188 15.160156 21.742188 17.796875 L 21.742188 32.921875 L 17.492188 40.296875 C 16.253906 42.457031 15.734375 44.90625 16.015625 47.390625 L 16.75 54.066406 L 18.105469 53.917969 L 17.363281 47.238281 C 17.125 45.050781 17.574219 42.886719 18.667969 40.980469 L 21.742188 35.652344 L 21.742188 44.511719 L 21.363281 45.183594 L 22.539062 45.867188 L 25.945312 39.953125 C 26.132812 39.636719 26.425781 39.40625 26.769531 39.316406 C 27.125 39.21875 27.492188 39.269531 27.804688 39.453125 C 28.117188 39.628906 28.351562 39.921875 28.441406 40.277344 C 28.535156 40.632812 28.488281 41.003906 28.304688 41.316406 L 25.917969 45.453125 C 25.816406 45.640625 25.804688 45.859375 25.878906 46.050781 L 26.757812 48.242188 C 27.042969 48.972656 27.191406 49.746094 27.191406 50.527344 L 27.191406 51.417969 C 27.191406 52.214844 27.042969 52.992188 26.742188 53.734375 L 28.003906 54.25 C 28.035156 54.164062 28.066406 54.078125 28.09375 53.992188 L 42.863281 53.992188 C 45.492188 53.992188 47.628906 51.847656 47.628906 49.210938 L 47.628906 17.796875 C 47.628906 15.160156 45.492188 13.015625 42.863281 13.015625"/></g><path fill="#DB238C" d="M 37.378906 31.890625 L 34.488281 34.785156 C 34.222656 35.054688 33.789062 35.054688 33.519531 34.785156 L 32.078125 33.339844 C 31.949219 33.210938 31.878906 33.039062 31.878906 32.855469 C 31.878906 32.671875 31.949219 32.5 32.078125 32.371094 C 32.214844 32.238281 32.386719 32.171875 32.558594 32.171875 C 32.730469 32.171875 32.910156 32.238281 33.042969 32.371094 L 33.519531 32.855469 C 33.789062 33.121094 34.222656 33.121094 34.488281 32.855469 L 36.417969 30.921875 C 36.683594 30.65625 37.109375 30.65625 37.378906 30.921875 C 37.644531 31.1875 37.644531 31.625 37.378906 31.890625 Z M 38.335938 29.957031 C 37.542969 29.160156 36.246094 29.160156 35.449219 29.957031 L 34.003906 31.40625 C 33.210938 30.609375 31.914062 30.609375 31.117188 31.40625 C 30.320312 32.207031 30.320312 33.503906 31.117188 34.300781 L 32.558594 35.75 C 32.949219 36.140625 33.460938 36.351562 34.003906 36.351562 C 34.550781 36.351562 35.0625 36.140625 35.449219 35.75 L 38.335938 32.855469 C 39.136719 32.054688 39.136719 30.757812 38.335938 29.957031"/><path fill="#DB238C" d="M 31.28125 15.746094 L 29.917969 15.746094 L 29.917969 17.113281 L 31.28125 17.113281 L 31.28125 15.746094"/><path fill="#DB238C" d="M 36.730469 15.746094 L 32.644531 15.746094 L 32.644531 17.113281 L 36.730469 17.113281 L 36.730469 15.746094"/><path fill="#DB238C" d="M 33.324219 51.261719 L 36.050781 51.261719 L 36.050781 49.894531 L 33.324219 49.894531 L 33.324219 51.261719"/><path fill="#DB238C" d="M 27.875 21.210938 L 25.148438 21.210938 C 24.773438 21.210938 24.46875 21.515625 24.46875 21.894531 L 24.46875 24.625 L 25.832031 24.625 L 25.832031 22.578125 L 27.875 22.578125 L 27.875 21.210938"/><path fill="#DB238C" d="M 24.46875 27.355469 L 25.832031 27.355469 L 25.832031 25.992188 L 24.46875 25.992188 L 24.46875 27.355469"/></svg>