<svg xmlns="http://www.w3.org/2000/svg" width="595.5" viewBox="0 0 595.5 842.25" height="842.25" version="1.0"><defs><clipPath id="a"><path d="M 0.015625 0 L 594.984375 0 L 594.984375 841.5 L 0.015625 841.5 Z M 0.015625 0"/></clipPath><clipPath id="b"><path d="M 137 667.640625 L 174 667.640625 L 174 712.019531 L 137 712.019531 Z M 137 667.640625"/></clipPath><clipPath id="c"><path d="M 407 235 L 557.152344 235 L 557.152344 432 L 407 432 Z M 407 235"/></clipPath></defs><g clip-path="url(#a)" fill="#FFF"><path d="M 0.015625 0 L 595.484375 0 L 595.484375 848.957031 L 0.015625 848.957031 Z M 0.015625 0"/><path d="M 0.015625 0 L 595.484375 0 L 595.484375 842.207031 L 0.015625 842.207031 Z M 0.015625 0"/><path d="M 0.015625 0 L 595.484375 0 L 595.484375 842.207031 L 0.015625 842.207031 Z M 0.015625 0"/></g><path fill="#F794B9" d="M 442.152344 658.382812 C 442.152344 658.382812 431.769531 658.957031 430.617188 664.34375 C 429.460938 669.730469 427.535156 676.277344 430.617188 679.351562 C 433.691406 682.429688 437.539062 688.203125 438.3125 690.511719 C 439.078125 692.820312 441.386719 701.285156 449.847656 701.671875 C 458.3125 702.058594 459.851562 697.4375 461.003906 693.207031 C 462.160156 688.972656 466.386719 655.496094 442.152344 658.382812"/><path fill="#F794B9" d="M 486.78125 660.882812 C 486.78125 660.882812 475.238281 662.808594 475.238281 669.347656 C 475.238281 675.890625 475.238281 683.203125 475.238281 683.203125 C 475.238281 683.203125 480.625 688.203125 481.003906 692.820312 C 481.390625 697.4375 484.84375 704.367188 492.925781 704.753906 C 501.011719 705.132812 502.546875 701.285156 504.472656 695.132812 C 506.394531 688.972656 512.550781 662.035156 486.78125 660.882812"/><path fill="#D89B86" d="M 454.464844 629.714844 C 454.464844 629.714844 454.851562 639.71875 456.390625 645.875 C 457.925781 652.027344 457.542969 662.421875 456.390625 670.890625 C 455.230469 679.351562 440.230469 670.890625 440.230469 670.890625 C 440.230469 670.890625 435.996094 643.953125 435.230469 632.792969 C 434.460938 621.632812 454.464844 629.714844 454.464844 629.714844"/><path fill="#D89B86" d="M 504.472656 647.800781 C 504.472656 647.800781 501.011719 656.261719 501.394531 661.269531 C 501.78125 666.269531 502.488281 670.117188 501.363281 672.8125 C 500.238281 675.503906 494.855469 677.429688 492.929688 677.429688 C 491.007812 677.429688 481.003906 674.351562 481.390625 671.65625 C 481.777344 668.964844 481.386719 659.34375 481.386719 659.34375 L 485.238281 639.335938 L 504.472656 647.800781"/><path fill="#D89B86" d="M 203.660156 634.332031 C 203.660156 634.332031 209.042969 654.726562 209.042969 660.496094 C 209.042969 666.269531 209.042969 685.125 209.042969 685.125 C 209.042969 685.125 222.507812 685.898438 224.433594 685.125 C 226.355469 684.355469 229.429688 685.46875 229.429688 685.46875 C 229.429688 685.46875 229.046875 669.328125 226.355469 657.796875 C 223.660156 646.261719 223.660156 634.332031 223.660156 634.332031 L 203.660156 634.332031"/><path fill="#D89B86" d="M 245.203125 650.347656 C 245.203125 650.347656 242.125 655.882812 241.742188 662.035156 C 241.359375 668.195312 243.472656 674.746094 243.472656 674.746094 L 259.820312 674.746094 L 259.820312 655.882812 L 245.203125 650.347656"/><path fill="#D89B86" d="M 97.871094 226.050781 C 97.871094 226.050781 117.105469 218.359375 117.878906 212.203125 C 118.648438 206.042969 117.878906 192.578125 117.878906 192.578125 L 159.039062 189.113281 C 159.039062 189.113281 156.34375 198.21875 153.269531 202.707031 C 150.191406 207.203125 150.957031 222.207031 152.109375 222.976562 C 153.269531 223.746094 97.871094 226.050781 97.871094 226.050781"/><path fill="#D89B86" d="M 378.6875 642.796875 L 378.6875 658.382812 C 378.6875 658.382812 369.011719 653.582031 361.375 657.796875 C 360.21875 651.648438 361.375 639.335938 361.375 639.335938 L 378.6875 642.796875"/><path fill="#D89B86" d="M 92.488281 627.785156 C 92.488281 627.785156 100.179688 663.191406 99.414062 671.269531 C 98.644531 679.351562 105.953125 681.570312 105.953125 681.570312 C 105.953125 681.570312 114.417969 675.203125 120.953125 676.316406 C 114.03125 667.425781 113.261719 621.632812 113.261719 621.632812 L 92.488281 627.785156"/><path fill="#D89B86" d="M 167.117188 621.632812 C 167.117188 621.632812 157.5 659.34375 159.039062 678.199219 C 149.035156 677.429688 140.574219 681.570312 140.574219 681.570312 L 143.648438 621.632812 L 167.117188 621.632812"/><path fill="#F03A58" d="M 212.890625 677.816406 C 212.890625 677.816406 205.96875 679.351562 205.582031 683.585938 C 205.199219 687.820312 200.199219 707.445312 205.582031 709.753906 C 210.96875 712.0625 226.355469 712.0625 229.429688 709.753906 C 232.511719 707.445312 233.277344 691.667969 233.277344 688.972656 C 233.277344 686.277344 230.96875 671.65625 212.890625 677.816406"/><path fill="#F03A58" d="M 243.667969 666.179688 C 243.667969 666.179688 237.898438 671.355469 238.28125 676.316406 C 238.664062 681.277344 237.089844 691.515625 238.265625 693.898438 C 239.433594 696.285156 236.3125 703.210938 250.757812 702.058594 C 265.207031 700.90625 263.667969 690.511719 263.667969 690.511719 C 263.667969 690.511719 266.746094 679.4375 268.667969 676.316406 C 270.589844 673.195312 262.128906 651.082031 243.667969 666.179688"/><path fill="#1B3A5D" d="M 373.296875 650.769531 C 373.296875 650.769531 380.609375 653.167969 382.53125 657.796875 C 384.453125 662.421875 385.226562 677.085938 384.066406 679.953125 C 382.914062 682.816406 360.859375 682.835938 360.859375 682.835938 C 360.859375 682.835938 363.300781 698.207031 354.453125 698.59375 C 345.601562 698.976562 337.523438 702.851562 332.523438 682.835938 C 328.824219 669.671875 326.753906 666.179688 326.753906 666.179688 C 326.753906 666.179688 327.140625 658.554688 339.832031 657.796875 C 352.53125 657.035156 357.53125 648.347656 373.296875 650.769531"/><path fill="#1B3A5D" d="M 114.796875 672.429688 C 114.796875 672.429688 124.035156 671.671875 124.414062 674.746094 C 124.800781 677.816406 125.953125 693.898438 125.953125 693.898438 C 125.953125 693.898438 131.34375 711.292969 120.378906 711.484375 C 109.414062 711.679688 105.183594 707.699219 104.027344 702.1875 C 102.875 696.671875 95.566406 691.921875 95.566406 691.921875 C 95.566406 691.921875 84.070312 665.101562 114.796875 672.429688"/><g clip-path="url(#b)"><path fill="#1B3A5D" d="M 145.574219 671.164062 C 145.574219 671.164062 137.878906 670.96875 138.265625 676.316406 C 138.652344 681.664062 135.542969 703.980469 138.25 708.980469 C 140.957031 713.988281 155.191406 712.0625 157.886719 708.980469 C 160.574219 705.90625 162.886719 699.363281 165.195312 697.824219 C 167.5 696.285156 173.269531 684.355469 173.65625 678.96875 C 174.039062 673.582031 159.441406 664.730469 155.394531 668.964844 C 151.34375 673.195312 145.574219 671.164062 145.574219 671.164062"/></g><path fill="#F794B9" d="M 74.023438 385.363281 C 74.023438 385.363281 68.253906 402.679688 74.023438 431.15625 C 79.792969 459.632812 82.488281 515.042969 82.488281 515.042969 C 82.488281 515.042969 80.949219 518.890625 82.488281 523.125 C 84.027344 527.355469 79.792969 529.664062 80.566406 532.359375 C 81.332031 535.050781 83.554688 546.210938 82.828125 549.671875 C 82.101562 553.140625 84.796875 588.921875 84.796875 588.921875 L 89.796875 630.480469 C 89.796875 630.480469 105.183594 635.488281 119.03125 625.867188 C 125.097656 612.476562 119.03125 581.230469 119.03125 581.230469 L 115.953125 578.535156 C 115.953125 578.535156 115.570312 549.292969 116.339844 547.75 C 117.105469 546.210938 118.265625 540.4375 117.492188 536.976562 C 116.722656 533.511719 117.878906 530.050781 117.878906 527.355469 C 117.878906 524.664062 117.878906 516.964844 118.265625 511.578125 C 118.648438 506.191406 123.648438 439.621094 125.1875 433.847656 C 126.722656 436.929688 130.570312 437.695312 130.570312 437.695312 C 130.570312 437.695312 137.496094 501.960938 137.113281 517.351562 C 136.726562 532.742188 138.296875 534.285156 137.128906 538.898438 C 135.957031 543.519531 137.570312 597.777344 137.570312 597.777344 C 137.570312 597.777344 139.417969 626.25 139.417969 627.785156 C 139.417969 629.328125 154.804688 637.792969 170.195312 625.867188 C 174.039062 616.632812 173.65625 594.695312 173.65625 594.695312 C 173.65625 594.695312 170.960938 592.769531 170.960938 590.464844 C 170.960938 588.15625 170.195312 548.519531 171.730469 545.441406 C 173.269531 542.367188 174.445312 531.972656 173.664062 530.050781 C 172.882812 528.125 171.09375 494.261719 173.914062 487.335938 C 176.730469 480.414062 189.34375 408.457031 186.3125 395.5625 C 183.273438 382.671875 74.023438 385.363281 74.023438 385.363281"/><path fill="#F03A58" d="M 346.753906 510.808594 L 345.601562 518.457031 C 345.601562 518.457031 344.835938 545.441406 344.449219 546.597656 C 344.066406 547.75 347.910156 568.148438 347.527344 573.535156 C 347.140625 578.921875 349.0625 612.011719 349.0625 612.011719 C 349.0625 612.011719 354.066406 641.640625 358.296875 657.796875 C 350.601562 668.554688 330.214844 665.882812 330.214844 665.882812 C 330.214844 665.882812 327.523438 655.882812 327.523438 650.109375 C 327.523438 644.335938 317.90625 611.625 312.136719 594.695312 C 306.367188 577.761719 307.136719 550.828125 307.605469 544.285156 C 308.074219 537.746094 307.605469 531.972656 307.605469 531.972656 C 307.605469 531.972656 304.828125 525.429688 306.753906 520.816406 C 308.675781 516.195312 306.753906 506.191406 306.753906 506.191406 C 305.980469 496.1875 297.90625 445.777344 293.4375 418.074219 C 288.972656 390.367188 297.519531 370.742188 297.519531 370.742188 C 297.519531 370.742188 357.53125 362.277344 404.84375 373.4375 C 419.84375 407.683594 401.765625 448.855469 401.765625 448.855469 C 401.765625 448.855469 385.226562 494.261719 385.226562 499.269531 C 385.226562 504.269531 386.378906 507.730469 385.226562 511.964844 C 384.066406 516.195312 385.609375 527.738281 385.609375 527.738281 C 385.609375 527.738281 393.304688 569.300781 387.148438 598.542969 C 380.992188 627.785156 383.300781 647.800781 383.300781 647.800781 C 383.300781 647.800781 360.96875 643.792969 358.296875 645.105469 C 355.625 646.425781 357.914062 623.941406 356.371094 607.011719 C 354.835938 590.078125 354.453125 558.523438 354.453125 551.214844 C 354.453125 543.90625 346.753906 510.808594 346.753906 510.808594"/><path fill="#1B3A5D" d="M 288.800781 415.507812 C 288.289062 401.65625 280.207031 373.4375 280.207031 373.4375 L 186.183594 373.4375 C 186.183594 373.4375 181.023438 417.046875 186.183594 447.832031 C 191.351562 478.613281 193.800781 523.25 195.136719 526.332031 C 196.480469 529.410156 191.234375 532.488281 195.136719 535.054688 C 199.046875 537.621094 194.828125 556.089844 195.136719 564.300781 C 195.453125 572.507812 195.136719 640.75 195.136719 640.75 C 195.136719 640.75 216.484375 637.15625 226.742188 643.824219 C 232.632812 612.550781 230.84375 549.421875 230.84375 549.421875 C 230.84375 549.421875 231.871094 525.304688 232.382812 517.609375 C 232.898438 509.910156 236.34375 471.949219 236.34375 471.949219 L 240.074219 551.472656 C 240.074219 551.472656 235.972656 561.738281 238.539062 565.324219 C 241.097656 568.917969 240.074219 598.679688 240.585938 608.941406 C 241.097656 619.203125 241.613281 652.550781 241.613281 652.550781 C 241.613281 652.550781 253.925781 664.351562 275.976562 652.550781 C 274.4375 631.515625 273.410156 563.277344 273.410156 563.277344 C 273.410156 563.277344 269.820312 533.515625 272.902344 523.253906 C 275.976562 512.992188 288.800781 415.507812 288.800781 415.507812"/><path fill="#1B3A5D" d="M 474.082031 435.003906 C 472.15625 430.382812 466.007812 435.390625 466.007812 435.390625 C 461.386719 433.464844 464.46875 518.890625 462.925781 528.898438 C 461.386719 538.898438 461.386719 599.699219 459.078125 606.625 C 456.769531 613.550781 459.078125 637.957031 459.078125 637.957031 L 430.863281 637.410156 C 430.863281 637.410156 430.371094 629.902344 427.988281 619.707031 C 422.574219 596.550781 424.460938 551.984375 426.769531 535.824219 C 429.074219 519.65625 427.535156 506.578125 426.769531 498.109375 C 426 489.648438 417.539062 452.703125 414.457031 423.84375 C 411.382812 394.984375 422.152344 354.222656 422.152344 354.222656 L 516.324219 351.117188 C 516.324219 351.117188 534.476562 395.367188 529.476562 429.617188 C 524.472656 463.863281 515.097656 498.109375 516.324219 527.355469 C 517.550781 556.601562 518.316406 582.769531 516.011719 602.390625 C 513.703125 622.019531 509.855469 647.800781 509.855469 650.492188 C 509.855469 653.1875 485.621094 652.027344 481.777344 644.722656 C 482.160156 634.332031 483.3125 593.542969 483.3125 593.542969 C 483.3125 593.542969 483.3125 554.679688 481.390625 549.671875 C 479.464844 544.671875 478.699219 533.125 478.699219 526.203125 C 478.699219 519.277344 474.082031 435.003906 474.082031 435.003906"/><g clip-path="url(#c)"><path fill="#F03A58" d="M 511.011719 362.277344 L 474.46875 363.429688 C 474.46875 363.429688 440.617188 363.042969 433.691406 361.503906 C 426.769531 359.96875 415.613281 366.507812 415.613281 366.507812 L 413.304688 333.027344 C 413.304688 333.027344 405.996094 283.390625 408.300781 264.148438 C 410.609375 244.914062 422.152344 240.292969 426.382812 240.292969 C 430.617188 240.292969 448.695312 235.5625 448.695312 235.5625 L 522.550781 249.914062 C 522.550781 249.914062 541.785156 252.222656 548.707031 270.308594 C 548.707031 270.308594 549.09375 317.253906 552.167969 329.179688 C 555.25 341.109375 555.25 366.507812 555.25 366.507812 L 557.171875 429.617188 C 557.171875 429.617188 539.859375 433.464844 529.476562 429.617188 C 527.933594 413.453125 528.320312 391.132812 528.320312 391.132812 C 528.320312 391.132812 522.933594 382.285156 523.320312 377.285156 C 523.707031 372.277344 519.472656 361.503906 519.472656 361.503906 L 511.011719 362.277344"/></g><path fill="#F794B9" d="M 381.378906 377.285156 C 381.378906 377.285156 360.605469 360.351562 346.363281 356.890625 C 332.125 353.421875 322.90625 350.347656 320.984375 339.957031 C 319.058594 329.566406 309.828125 316.484375 308.675781 307.632812 C 307.523438 298.785156 290.59375 267.957031 290.59375 267.957031 C 282.519531 252.90625 272.0625 252.605469 272.0625 252.605469 C 272.0625 252.605469 222.894531 244.140625 207.890625 244.140625 C 192.890625 244.140625 179.039062 255.300781 179.039062 255.300781 L 179.039062 374.589844 L 188.273438 379.589844 C 188.273438 379.589844 194.8125 391.132812 201.351562 392.292969 C 207.890625 393.445312 216.351562 393.058594 222.125 392.292969 C 227.894531 391.519531 237.511719 390.367188 242.125 390.367188 C 246.742188 390.367188 257.511719 384.59375 257.511719 384.59375 C 257.511719 384.59375 278.285156 385.363281 280.59375 383.058594 C 282.902344 380.746094 287.515625 368.050781 285.980469 361.121094 C 284.441406 354.195312 290.59375 345.34375 290.59375 345.34375 C 290.59375 345.34375 299.445312 358.042969 305.214844 364.582031 C 310.984375 371.125 320.601562 376.511719 322.90625 379.976562 C 325.214844 383.441406 355.992188 398.449219 357.914062 398.832031 C 359.832031 399.21875 381.378906 399.988281 381.378906 377.285156"/><path fill="#F794B9" d="M 413.691406 257.226562 C 404.460938 242.988281 381.378906 239.523438 381.378906 239.523438 L 322.90625 237.519531 C 322.90625 237.519531 301.75 244.527344 293.4375 247.21875 C 285.125 249.914062 280.207031 270.308594 280.207031 270.308594 L 293.4375 341.109375 C 293.4375 341.109375 288.589844 348.421875 288.824219 352.269531 C 289.054688 356.117188 289.441406 359.96875 291.363281 361.503906 C 293.289062 363.042969 288.203125 368.050781 288.824219 372.664062 C 289.441406 377.285156 295.597656 379.976562 295.597656 379.976562 C 295.597656 379.976562 313.675781 371.511719 320.984375 371.511719 C 328.292969 371.511719 372.53125 376.898438 372.53125 376.898438 C 372.53125 376.898438 388.300781 377.285156 396.765625 379.976562 C 405.226562 382.671875 410.226562 385.363281 410.226562 385.363281 C 410.226562 385.363281 412.148438 377.664062 410.609375 369.972656 C 409.074219 362.277344 403.304688 352.65625 402.535156 345.730469 C 401.765625 338.800781 395.609375 329.566406 395.609375 329.566406 L 405.996094 334.953125 C 405.996094 334.953125 412.261719 348.808594 430.863281 356.503906 C 449.464844 364.199219 472.542969 371.898438 484.851562 372.277344 C 497.164062 372.664062 511.78125 373.820312 511.78125 373.820312 C 511.78125 373.820312 519.859375 334.570312 514.476562 331.492188 C 509.089844 328.414062 498.703125 328.800781 493.316406 329.179688 C 487.933594 329.566406 467.414062 327.730469 461.386719 323.519531 C 455.363281 319.308594 437.539062 313.792969 435.617188 309.558594 C 433.691406 305.324219 413.691406 257.226562 413.691406 257.226562"/><path fill="#F03A58" d="M 188.273438 320.332031 C 186.261719 317.515625 185.582031 329.566406 185.582031 332.261719 C 185.582031 334.953125 183.65625 342.648438 183.65625 347.65625 C 183.65625 352.65625 193.269531 361.890625 194.425781 368.050781 C 195.578125 374.203125 189.808594 381.898438 187.121094 385.363281 C 184.425781 388.828125 187.121094 398.832031 187.121094 402.292969 C 187.121094 405.761719 175.964844 396.90625 172.882812 395.753906 C 169.808594 394.601562 151.730469 394.984375 140.1875 394.601562 C 128.648438 394.214844 108.648438 394.984375 93.257812 395.753906 C 77.871094 396.527344 81.019531 392.222656 71.332031 390.75 C 68.253906 401.140625 72.484375 448.085938 71.71875 449.625 C 70.949219 451.164062 57.097656 454.246094 49.023438 454.246094 C 40.945312 454.246094 38.25 444.625 39.40625 441.929688 C 40.558594 439.238281 43.253906 397.292969 42.867188 391.132812 C 42.480469 384.980469 47.097656 359.195312 47.867188 349.195312 C 48.636719 339.1875 62.484375 260.300781 64.792969 244.527344 C 67.101562 228.75 83.640625 226.050781 83.640625 226.050781 C 83.640625 226.050781 87.488281 222.589844 90.183594 222.589844 C 92.875 222.589844 123.648438 223.363281 126.339844 222.589844 C 129.035156 221.824219 149.804688 218.359375 153.269531 219.898438 C 156.730469 221.4375 160.574219 224.515625 164.421875 226.050781 C 164.421875 226.050781 177.117188 229.519531 182.886719 233.367188 C 188.65625 237.214844 201.734375 257.609375 202.507812 260.6875 C 203.273438 263.765625 207.507812 273.382812 209.042969 277.617188 C 210.582031 281.851562 216.351562 293.398438 217.125 290.316406 C 217.890625 287.238281 219.046875 284.542969 220.972656 284.929688 C 222.894531 285.316406 226.355469 284.15625 228.664062 278.769531 C 230.96875 273.382812 234.433594 269.921875 234.433594 269.921875 C 234.433594 269.921875 234.816406 263.765625 239.820312 259.535156 C 244.820312 255.300781 244.820312 246.453125 246.355469 245.679688 C 247.894531 244.914062 259.820312 235.289062 269.4375 233.75 C 269.4375 233.75 278.285156 240.292969 282.519531 257.226562 C 274.4375 256.070312 270.976562 259.148438 270.976562 259.148438 C 270.976562 259.148438 273.285156 267.613281 270.589844 270.308594 C 267.902344 273 260.972656 284.929688 257.125 291.472656 C 253.28125 298.011719 239.050781 319.179688 235.585938 320.71875 C 232.125 322.253906 209.816406 321.871094 208.660156 321.871094 C 207.507812 321.871094 194.042969 328.414062 188.273438 320.332031"/><path fill="#D89B86" d="M 522.867188 372.703125 C 521.53125 373.058594 519.921875 370.847656 518.019531 368.640625 C 516.105469 366.417969 513.902344 364.199219 511.394531 364.582031 C 506.394531 365.355469 511.394531 339.574219 511.394531 339.574219 C 511.394531 339.574219 518.316406 335.339844 521.398438 337.261719 C 524.472656 339.1875 533.554688 345.34375 533.554688 345.34375 C 533.554688 345.34375 534.695312 350.078125 532.316406 352.054688 C 529.9375 354.042969 529.542969 359.789062 529.542969 359.789062 C 529.542969 359.789062 530.347656 370.699219 522.867188 372.703125"/><path fill="#D89B86" d="M 268.28125 239.90625 C 268.28125 239.90625 279.054688 237.054688 280.207031 237.519531 C 281.367188 237.984375 289.449219 250.003906 289.449219 250.003906 L 289.449219 264.148438 L 282.519531 257.558594 L 268.28125 239.90625"/><path fill="#D89B86" d="M 546.015625 427.695312 L 541.398438 446.164062 L 533.554688 453.089844 L 523.320312 456.167969 C 523.320312 456.167969 522.933594 449.625 525.628906 449.238281 C 528.320312 448.855469 526.78125 446.550781 529.089844 445.011719 C 531.394531 443.46875 533.554688 433.082031 533.554688 433.082031 L 533.554688 423.84375 L 546.015625 427.695312"/><path fill="#D89B86" d="M 377.53125 379.207031 C 377.53125 379.207031 383.300781 376.128906 386.761719 379.207031 C 390.222656 382.285156 401.765625 394.984375 401.765625 394.984375 L 395.996094 394.984375 L 389.648438 393.445312 L 392.519531 398.953125 C 392.519531 398.953125 379.390625 399.449219 372.144531 398.953125 C 364.902344 398.449219 365.609375 388.503906 365.609375 388.503906 L 377.53125 379.207031"/><path fill="#D89B86" d="M 189.691406 381.867188 C 189.691406 381.867188 186.535156 385.242188 186.246094 387.3125 C 185.960938 389.386719 186.777344 397.679688 186.777344 397.679688 C 186.777344 397.679688 185.492188 399.027344 187.941406 395.753906 C 190.390625 392.480469 194.59375 388.039062 195.109375 388.527344 C 195.621094 389.015625 189.691406 381.867188 189.691406 381.867188"/><path fill="#1B3A5D" d="M 108.648438 180.648438 C 108.648438 180.648438 105.515625 180.234375 103.644531 174.875 C 97.492188 156.019531 109.414062 142.550781 119.03125 132.929688 C 128.648438 123.316406 138.652344 132.929688 138.652344 132.929688 C 138.652344 132.929688 144.421875 127.542969 155.960938 136.398438 C 167.5 145.246094 170.195312 161.792969 170.195312 161.792969 C 170.195312 161.792969 172.503906 173.722656 165.195312 178.726562 C 157.886719 183.726562 162.886719 189.113281 162.886719 189.113281 C 162.886719 189.113281 159.804688 190.652344 159.039062 189.113281 C 158.265625 187.574219 157.5 196.042969 151.730469 199.503906 C 145.960938 202.96875 138.460938 198.734375 136.25 201.808594 C 134.03125 204.890625 128.261719 199.117188 121.339844 198.347656 C 114.417969 197.582031 107.875 184.496094 108.648438 180.648438"/><path fill="#1B3A5D" d="M 377.53125 304.171875 C 377.53125 304.171875 387.148438 304.558594 383.300781 320.71875 C 393.683594 315.714844 389.070312 304.171875 389.070312 304.171875 C 389.070312 304.171875 394.457031 296.089844 391.765625 289.550781 C 389.070312 283.003906 392.53125 275.308594 391.765625 266.074219 C 390.996094 256.839844 389.84375 247.21875 387.148438 242.601562 C 384.453125 237.984375 383.6875 207.582031 380.226562 185.265625 C 376.765625 162.945312 368.683594 156.40625 364.453125 153.710938 C 360.21875 151.019531 351.757812 150.25 351.757812 150.25 C 351.757812 150.25 345.601562 144.089844 334.0625 152.9375 C 322.519531 161.792969 313.289062 176.800781 313.675781 191.808594 C 314.058594 206.816406 313.289062 221.050781 310.597656 227.976562 C 307.902344 234.90625 297.519531 251.066406 305.214844 264.148438 C 312.90625 277.234375 300.210938 280.3125 300.210938 280.3125 C 300.210938 280.3125 310.214844 280.613281 311.75 267.957031 C 311.75 267.957031 315.984375 278.769531 312.136719 285.699219 C 308.289062 292.625 301.75 303.015625 313.675781 308.019531 C 309.0625 298.398438 317.136719 294.164062 317.136719 294.164062 C 317.136719 294.164062 313.675781 306.480469 329.832031 310.710938 C 345.988281 314.945312 339.445312 326.875 339.445312 326.875 C 339.445312 326.875 349.449219 325.335938 350.601562 319.5625 C 355.992188 313.019531 354.453125 323.414062 354.453125 323.414062 C 354.453125 323.414062 359.832031 318.792969 365.609375 316.867188 C 371.375 314.945312 377.144531 312.632812 377.53125 304.171875"/><path fill="#1B3A5D" d="M 248.25 248.347656 C 249.011719 245.035156 261.84375 236.226562 265.078125 234.90625 C 268.304688 233.589844 269.824219 223.746094 271.363281 217.203125 C 272.902344 210.664062 271.75 196.808594 269.4375 189.113281 C 267.128906 181.414062 269.824219 176.414062 259.4375 165.683594 C 249.050781 154.953125 237.125 157.171875 237.125 157.171875 C 237.125 157.171875 224.433594 153.027344 214.429688 165.683594 C 204.429688 178.339844 197.117188 203.734375 197.503906 230.285156 C 197.523438 235.671875 194.042969 240.679688 194.042969 240.679688 C 194.042969 240.679688 198.660156 239.523438 200.199219 236.832031 C 201.734375 234.136719 199.746094 244.160156 197.117188 245.679688 C 194.492188 247.199219 203.660156 245.679688 203.660156 245.679688 C 203.660156 245.679688 199.8125 255.300781 205.96875 258.378906 C 212.125 261.457031 215.199219 260.6875 215.199219 263.382812 C 215.199219 266.074219 220.972656 264.921875 222.125 263.382812 C 223.28125 261.839844 225.203125 263.382812 225.203125 266.84375 C 225.203125 270.308594 233.207031 264.921875 233.050781 261.074219 C 232.894531 257.226562 237.777344 261.667969 237.777344 261.667969 C 237.777344 261.667969 245.9375 258.347656 248.25 248.347656"/><path fill="#1B3A5D" d="M 531.394531 306.863281 C 533.710938 302.246094 536.398438 260.6875 526.398438 248.375 C 516.398438 236.058594 511.78125 209.507812 511.78125 209.507812 C 511.78125 209.507812 511.78125 178.339844 501.78125 162.179688 C 491.777344 146.015625 476.777344 148.167969 476.777344 148.167969 C 476.777344 148.167969 463.3125 143.707031 451.390625 159.867188 C 439.464844 176.027344 440.230469 199.886719 440.230469 199.886719 C 440.230469 199.886719 439.078125 238.367188 434.460938 252.992188 C 429.847656 267.613281 425.230469 307.246094 451.003906 317.640625 C 476.777344 328.027344 482.210938 321.484375 482.210938 321.484375 C 482.210938 321.484375 476.390625 313.792969 478.699219 304.558594 C 482.210938 321.484375 489.082031 321.871094 489.082031 321.871094 L 499.859375 319.945312 C 499.859375 319.945312 508.320312 312.632812 503.699219 287.238281 C 517.9375 311.867188 505.238281 319.179688 505.238281 319.179688 C 505.238281 319.179688 515.628906 319.5625 516.78125 315.714844 C 517.9375 311.867188 525.246094 304.9375 522.167969 289.550781 C 519.089844 274.15625 531.394531 306.863281 531.394531 306.863281"/><path fill="#BD3345" d="M 66.09375 386.988281 L 65.933594 385.171875 C 65.796875 383.558594 65.714844 381.957031 65.671875 380.34375 C 65.632812 378.730469 65.625 377.132812 65.753906 375.492188 C 65.769531 375.078125 65.828125 374.679688 65.886719 374.285156 C 65.96875 373.878906 65.953125 373.515625 66.113281 373.074219 C 66.222656 372.65625 66.367188 372.269531 66.539062 371.902344 C 66.6875 371.519531 66.867188 371.160156 67.050781 370.796875 C 67.769531 369.351562 68.574219 367.957031 69.382812 366.570312 C 71 363.796875 72.667969 361.0625 74.246094 358.273438 C 75.027344 356.878906 75.8125 355.480469 76.507812 354.042969 C 76.871094 353.324219 77.191406 352.589844 77.503906 351.855469 L 77.675781 351.40625 C 77.667969 351.28125 77.660156 351.160156 77.652344 351.035156 C 77.460938 348.179688 77.230469 345.328125 76.972656 342.46875 L 75.339844 325.351562 L 73.546875 308.242188 L 71.648438 291.144531 L 71.648438 291.097656 L 71.230469 266.464844 L 71.175781 254.144531 L 71.207031 247.984375 L 71.265625 244.902344 C 71.308594 243.882812 71.308594 242.847656 71.460938 241.832031 C 71.332031 242.855469 71.363281 243.882812 71.34375 244.902344 L 71.363281 247.984375 L 71.480469 254.144531 L 71.835938 266.449219 L 72.597656 291.046875 C 73.316406 296.734375 73.953125 302.433594 74.605469 308.125 L 76.480469 325.234375 C 77.085938 330.941406 77.652344 336.648438 78.125 342.371094 C 78.367188 345.234375 78.585938 348.097656 78.761719 350.964844 C 78.855469 352.402344 78.925781 353.835938 78.972656 355.277344 C 78.984375 356.003906 79.015625 356.722656 78.996094 357.453125 C 78.984375 357.820312 78.992188 358.175781 78.953125 358.5625 L 78.90625 359.128906 L 78.757812 359.78125 L 78.714844 359.957031 L 78.445312 360.085938 L 77.824219 360.386719 C 77.605469 360.472656 77.40625 360.582031 77.234375 360.730469 C 77.0625 360.867188 76.863281 360.984375 76.699219 361.136719 L 76.253906 361.636719 C 76.109375 361.804688 76.023438 362.015625 75.902344 362.203125 C 75.765625 362.382812 75.707031 362.605469 75.625 362.820312 C 75.539062 363.03125 75.46875 363.242188 75.441406 363.476562 C 75.398438 363.703125 75.328125 363.921875 75.328125 364.160156 C 75.273438 364.625 75.289062 365.097656 75.3125 365.570312 C 75.363281 366.050781 75.421875 366.523438 75.523438 367 C 75.722656 367.9375 76.027344 368.890625 76.40625 369.75 L 76.570312 370.109375 L 76.28125 370.355469 C 75.691406 370.867188 75.097656 371.355469 74.492188 371.851562 C 73.859375 372.324219 73.246094 372.867188 72.597656 373.269531 C 72.285156 373.484375 71.933594 373.691406 71.652344 373.910156 L 71.535156 374.015625 L 71.386719 374.222656 C 71.28125 374.351562 71.183594 374.503906 71.09375 374.667969 C 70.710938 375.296875 70.390625 375.992188 70.066406 376.679688 C 68.816406 379.46875 67.738281 382.363281 66.707031 385.261719 L 66.09375 386.988281 M 77.683594 351.523438 L 77.558594 351.875 C 77.265625 352.625 76.960938 353.367188 76.617188 354.09375 C 75.953125 355.550781 75.203125 356.972656 74.457031 358.390625 C 72.945312 361.222656 71.339844 364 69.796875 366.804688 C 69.023438 368.207031 68.257812 369.617188 67.585938 371.050781 C 67.414062 371.410156 67.242188 371.773438 67.101562 372.132812 C 66.941406 372.496094 66.8125 372.863281 66.71875 373.226562 C 66.59375 373.539062 66.59375 374 66.53125 374.378906 C 66.472656 374.773438 66.417969 375.175781 66.414062 375.566406 C 66.304688 377.121094 66.339844 378.730469 66.394531 380.320312 C 66.4375 381.289062 66.492188 382.261719 66.566406 383.230469 C 67.378906 380.898438 68.238281 378.585938 69.222656 376.304688 C 69.550781 375.585938 69.859375 374.875 70.269531 374.179688 C 70.367188 374.003906 70.472656 373.828125 70.609375 373.648438 L 70.792969 373.390625 L 71.105469 373.105469 C 71.429688 372.851562 71.746094 372.664062 72.0625 372.4375 C 72.71875 372.015625 73.257812 371.515625 73.859375 371.066406 L 75.328125 369.824219 C 74.972656 368.96875 74.710938 368.113281 74.511719 367.210938 C 74.398438 366.703125 74.332031 366.179688 74.273438 365.65625 C 74.242188 365.125 74.226562 364.597656 74.285156 364.058594 C 74.289062 363.789062 74.363281 363.523438 74.410156 363.253906 C 74.453125 362.984375 74.53125 362.722656 74.632812 362.460938 C 74.730469 362.203125 74.808594 361.9375 74.96875 361.699219 C 75.117188 361.46875 75.230469 361.207031 75.410156 360.992188 L 75.96875 360.367188 C 76.171875 360.171875 76.40625 360.027344 76.625 359.851562 C 76.839844 359.675781 77.082031 359.539062 77.328125 359.433594 L 77.789062 359.214844 C 77.800781 359.136719 77.820312 359.0625 77.839844 358.984375 L 77.875 358.480469 C 77.90625 358.148438 77.902344 357.789062 77.90625 357.4375 C 77.921875 356.738281 77.894531 356.019531 77.875 355.316406 C 77.828125 354.050781 77.765625 352.789062 77.683594 351.523438"/><path fill="#BD3345" d="M 78.460938 308.402344 C 78.460938 308.402344 78.285156 307.683594 77.980469 306.433594 C 77.820312 305.808594 77.675781 305.035156 77.539062 304.144531 C 77.390625 303.253906 77.195312 302.257812 77.109375 301.148438 C 77 300.046875 76.839844 298.859375 76.769531 297.589844 C 76.679688 296.324219 76.5625 294.988281 76.539062 293.605469 C 76.425781 290.839844 76.417969 287.886719 76.476562 284.9375 C 76.503906 283.464844 76.570312 281.992188 76.625 280.542969 C 76.667969 279.09375 76.789062 277.664062 76.863281 276.285156 C 77.042969 273.527344 77.304688 270.964844 77.519531 268.765625 C 77.730469 266.5625 77.996094 264.738281 78.160156 263.460938 C 78.335938 262.183594 78.460938 261.457031 78.460938 261.457031 C 78.460938 261.457031 78.347656 264.402344 78.183594 268.8125 C 78.097656 271.015625 78.003906 273.585938 77.90625 276.339844 C 77.824219 279.09375 77.703125 282.03125 77.667969 284.960938 C 77.582031 287.898438 77.574219 290.832031 77.585938 293.582031 C 77.601562 294.953125 77.621094 296.285156 77.632812 297.542969 C 77.636719 298.808594 77.730469 299.992188 77.773438 301.09375 C 77.816406 302.195312 77.917969 303.195312 77.976562 304.085938 C 78.035156 304.984375 78.109375 305.761719 78.210938 306.394531 C 78.367188 307.671875 78.460938 308.402344 78.460938 308.402344"/><path fill="#BD3345" d="M 183.890625 315.332031 C 183.890625 315.332031 183.691406 315.09375 183.3125 314.65625 C 182.964844 314.195312 182.488281 313.484375 181.996094 312.519531 C 181.507812 311.550781 180.976562 310.347656 180.457031 308.929688 C 179.921875 307.523438 179.40625 305.898438 178.90625 304.117188 C 177.914062 300.542969 176.90625 296.335938 176.070312 291.785156 C 175.230469 287.230469 174.464844 282.359375 173.792969 277.46875 C 173.179688 272.574219 172.660156 267.667969 172.265625 263.058594 C 172.0625 260.753906 171.929688 258.519531 171.84375 256.398438 C 171.75 254.277344 171.683594 252.257812 171.878906 250.398438 C 171.941406 249.464844 171.980469 248.570312 172.1875 247.738281 C 172.382812 246.90625 172.441406 246.097656 172.722656 245.382812 C 172.972656 244.667969 173.144531 243.972656 173.414062 243.378906 C 173.703125 242.789062 173.9375 242.230469 174.203125 241.757812 C 174.496094 241.300781 174.75 240.882812 174.992188 240.542969 C 175.265625 240.222656 175.5 239.949219 175.683594 239.730469 C 176.089844 239.332031 176.335938 239.148438 176.351562 239.140625 C 176.339844 239.144531 176.285156 239.195312 176.183594 239.289062 C 176.082031 239.402344 175.925781 239.5625 175.738281 239.773438 C 175.566406 240.003906 175.355469 240.289062 175.109375 240.628906 C 174.90625 240.984375 174.667969 241.402344 174.402344 241.867188 C 174.171875 242.347656 173.964844 242.90625 173.71875 243.496094 C 173.488281 244.09375 173.351562 244.78125 173.144531 245.492188 C 172.910156 246.199219 172.894531 247.007812 172.75 247.824219 C 172.59375 248.644531 172.566406 249.519531 172.542969 250.433594 C 172.414062 252.261719 172.542969 254.246094 172.703125 256.347656 C 172.859375 258.453125 173.082031 260.667969 173.292969 262.964844 C 173.734375 267.550781 174.304688 272.441406 174.972656 277.3125 C 175.59375 282.191406 176.296875 287.0625 177.089844 291.597656 C 177.878906 296.140625 178.664062 300.371094 179.550781 303.945312 C 180.007812 305.726562 180.429688 307.363281 180.875 308.785156 C 181.3125 310.21875 181.773438 311.433594 182.203125 312.421875 C 182.644531 313.398438 183.050781 314.136719 183.367188 314.621094 C 183.710938 315.082031 183.890625 315.332031 183.890625 315.332031"/><path fill="#BD3345" d="M 172.117188 386.519531 C 172.117188 386.519531 172.097656 386.300781 172.011719 385.90625 C 171.949219 385.5 171.78125 384.929688 171.597656 384.199219 C 171.5 383.835938 171.347656 383.445312 171.203125 383.015625 C 171.070312 382.582031 170.890625 382.128906 170.664062 381.652344 C 170.441406 381.179688 170.25 380.652344 169.960938 380.148438 C 169.671875 379.636719 169.375 379.101562 169.058594 378.539062 C 168.753906 377.980469 168.316406 377.464844 167.929688 376.894531 C 167.730469 376.613281 167.53125 376.332031 167.324219 376.042969 C 167.082031 375.777344 166.839844 375.511719 166.589844 375.242188 C 165.648438 374.175781 164.394531 373.0625 163.613281 371.511719 C 162.820312 370.035156 162.226562 368.429688 161.695312 366.789062 C 161.167969 365.144531 160.71875 363.457031 160.3125 361.757812 C 159.566406 358.355469 159.003906 354.917969 158.546875 351.695312 C 158.085938 348.46875 157.824219 345.4375 157.589844 342.847656 C 157.355469 340.257812 157.273438 338.085938 157.1875 336.570312 C 157.121094 335.054688 157.113281 334.1875 157.113281 334.1875 C 157.113281 334.1875 157.570312 337.621094 158.253906 342.773438 C 158.582031 345.351562 159.070312 348.339844 159.5625 351.539062 C 160.070312 354.742188 160.6875 358.140625 161.472656 361.496094 C 161.84375 363.175781 162.261719 364.84375 162.75 366.457031 C 163.242188 368.066406 163.800781 369.632812 164.523438 371.023438 C 165.203125 372.410156 166.277344 373.488281 167.253906 374.6875 C 167.496094 374.980469 167.730469 375.261719 167.96875 375.546875 C 168.167969 375.859375 168.363281 376.160156 168.558594 376.460938 C 168.929688 377.066406 169.347656 377.613281 169.640625 378.210938 C 169.929688 378.800781 170.207031 379.367188 170.472656 379.902344 C 170.734375 380.445312 170.886719 380.996094 171.070312 381.496094 C 171.265625 381.992188 171.414062 382.464844 171.511719 382.917969 C 171.625 383.367188 171.75 383.773438 171.820312 384.144531 C 172.117188 385.644531 172.117188 386.519531 172.117188 386.519531"/><path fill="#BD3345" d="M 216.738281 313.019531 C 216.316406 311.476562 215.980469 309.910156 215.707031 308.335938 C 215.4375 306.753906 215.226562 305.164062 215.097656 303.5625 C 215.054688 302.757812 214.96875 301.957031 214.976562 301.148438 C 214.949219 300.347656 214.988281 299.53125 215.011719 298.71875 L 215.128906 297.496094 C 215.167969 297.089844 215.273438 296.679688 215.34375 296.269531 C 215.394531 295.859375 215.570312 295.453125 215.6875 295.046875 C 215.804688 294.640625 216.09375 294.242188 216.292969 293.851562 L 216.71875 293.015625 L 217.199219 293.871094 L 217.835938 295.011719 C 218.042969 295.390625 218.273438 295.757812 218.4375 296.164062 C 218.792969 296.953125 219.175781 297.734375 219.441406 298.5625 C 219.757812 299.367188 219.984375 300.207031 220.1875 301.042969 C 220.371094 301.882812 220.542969 302.734375 220.585938 303.59375 C 220.363281 302.765625 220.089844 301.957031 219.78125 301.167969 C 219.640625 300.769531 219.445312 300.386719 219.289062 299.996094 C 219.136719 299.601562 218.945312 299.222656 218.765625 298.84375 C 218.570312 298.46875 218.410156 298.078125 218.195312 297.714844 L 217.59375 296.605469 C 217.402344 296.234375 217.15625 295.890625 216.941406 295.53125 L 216.796875 295.296875 C 216.785156 295.34375 216.769531 295.386719 216.761719 295.433594 C 216.667969 295.796875 216.519531 296.125 216.476562 296.511719 C 216.417969 296.886719 216.328125 297.25 216.300781 297.640625 L 216.195312 298.792969 C 216.09375 300.351562 216.121094 301.925781 216.152344 303.5 C 216.21875 305.082031 216.300781 306.664062 216.402344 308.25 L 216.738281 313.019531"/><path fill="#B67186" d="M 194.042969 381.867188 C 194.042969 381.867188 193.824219 380.433594 193.878906 377.902344 C 193.917969 376.644531 194.03125 375.101562 194.433594 373.367188 C 194.835938 371.660156 195.566406 369.648438 197.3125 368.132812 C 197.507812 367.921875 197.78125 367.8125 198.023438 367.644531 C 198.25 367.503906 198.546875 367.304688 198.804688 367.226562 C 199.328125 367.023438 199.859375 366.8125 200.398438 366.597656 C 200.925781 366.359375 201.53125 366.238281 202.117188 366.058594 C 202.707031 365.902344 203.304688 365.710938 203.917969 365.582031 C 206.359375 365.0625 208.957031 364.613281 211.660156 364.394531 C 213.011719 364.273438 214.386719 364.167969 215.78125 364.113281 C 217.175781 364.015625 218.632812 364.113281 219.921875 363.851562 C 222.601562 363.375 225.277344 362.304688 227.652344 360.820312 C 230.027344 359.363281 232.164062 357.398438 234.324219 355.578125 C 236.476562 353.738281 238.597656 351.914062 240.769531 350.265625 C 241.867188 349.457031 242.953125 348.664062 244.183594 348.0625 C 244.757812 347.730469 245.578125 347.597656 246 347.398438 C 246.496094 347.171875 246.992188 346.800781 247.449219 346.417969 C 249.273438 344.84375 250.789062 343.03125 252.335938 341.507812 C 253.109375 340.742188 253.875 340.019531 254.714844 339.449219 C 255.339844 339.027344 256.085938 338.628906 256.84375 338.628906 C 257.074219 338.628906 257.3125 338.667969 257.539062 338.75 C 257.753906 338.828125 257.941406 338.945312 258.101562 339.09375 C 257.96875 339.15625 257.898438 339.1875 257.898438 339.1875 C 257.898438 339.1875 257.980469 339.167969 258.140625 339.125 C 258.144531 339.132812 258.148438 339.136719 258.152344 339.140625 C 258.308594 339.289062 258.460938 339.433594 258.605469 339.574219 C 258.921875 339.828125 259.15625 340.175781 259.371094 340.519531 C 259.8125 341.191406 259.941406 341.917969 260.011719 342.550781 C 260.074219 343.828125 259.984375 344.804688 260.042969 345.480469 C 260.152344 346.144531 260.207031 346.496094 260.207031 346.496094 C 260.207031 346.496094 260.128906 346.144531 259.980469 345.484375 C 259.882812 344.820312 259.890625 343.808594 259.78125 342.574219 C 259.691406 341.972656 259.527344 341.28125 259.097656 340.707031 C 258.898438 340.410156 258.6875 340.105469 258.34375 339.855469 C 258.191406 339.722656 258.03125 339.582031 257.875 339.441406 C 257.738281 339.320312 257.566406 339.222656 257.390625 339.167969 C 257.246094 339.117188 257.09375 339.09375 256.941406 339.09375 C 256.324219 339.09375 255.644531 339.464844 255.046875 339.917969 C 254.289062 340.488281 253.550781 341.199219 252.816406 341.976562 C 251.324219 343.519531 249.886719 345.363281 248.015625 347.078125 C 247.53125 347.496094 247.035156 347.914062 246.386719 348.234375 C 245.65625 348.566406 245.160156 348.609375 244.613281 348.941406 C 243.523438 349.523438 242.449219 350.285156 241.390625 351.089844 C 239.277344 352.722656 237.1875 354.558594 235.046875 356.421875 C 232.898438 358.261719 230.800781 360.25 228.277344 361.835938 C 225.75 363.367188 222.976562 364.457031 220.082031 364.949219 C 218.574219 365.21875 217.199219 365.09375 215.824219 365.175781 C 214.449219 365.21875 213.085938 365.3125 211.75 365.421875 C 209.078125 365.636719 206.511719 365.984375 204.101562 366.425781 C 203.5 366.539062 202.929688 366.703125 202.359375 366.835938 C 201.789062 366.988281 201.21875 367.078125 200.675781 367.304688 C 200.128906 367.503906 199.589844 367.699219 199.066406 367.894531 C 198.78125 367.976562 198.617188 368.105469 198.371094 368.238281 C 198.160156 368.382812 197.90625 368.46875 197.726562 368.65625 C 196.140625 369.964844 195.324219 371.832031 194.855469 373.476562 C 194.390625 375.144531 194.199219 376.667969 194.105469 377.917969 C 193.925781 380.421875 194.042969 381.867188 194.042969 381.867188"/><path fill="#B67186" d="M 257.898438 339.1875 C 257.898438 339.1875 257.96875 339.15625 258.101562 339.09375 C 258.640625 338.839844 260.222656 338.105469 262.378906 337.09375 C 263.707031 336.464844 265.273438 335.691406 266.75 334.707031 C 267.152344 334.429688 267.371094 334.285156 267.71875 333.878906 C 267.882812 333.648438 268.0625 333.238281 268.15625 332.804688 C 268.371094 331.9375 268.445312 330.964844 268.472656 330.007812 C 268.539062 328.082031 268.414062 326.109375 268.128906 324.347656 C 268.054688 323.871094 267.960938 323.601562 267.804688 323.101562 C 267.617188 322.394531 267.84375 321.96875 267.972656 321.519531 C 268.285156 320.671875 268.695312 319.964844 269.085938 319.316406 C 269.867188 318.03125 270.660156 317.070312 271.1875 316.375 C 271.726562 315.699219 272.0625 315.332031 272.0625 315.332031 C 272.0625 315.332031 271.8125 315.757812 271.371094 316.507812 C 270.929688 317.25 270.332031 318.335938 269.671875 319.644531 C 269.339844 320.292969 269.007812 321.019531 268.792969 321.78125 C 268.695312 322.140625 268.621094 322.605469 268.71875 322.761719 C 268.863281 323.101562 269.070312 323.691406 269.152344 324.136719 C 269.558594 326.015625 269.703125 328.015625 269.664062 330.046875 C 269.621094 331.058594 269.53125 332.074219 269.273438 333.09375 C 269.140625 333.605469 268.960938 334.117188 268.53125 334.632812 C 268.257812 334.949219 267.707031 335.367188 267.324219 335.585938 C 265.671875 336.589844 264.027344 337.164062 262.636719 337.714844 C 261.242188 338.242188 260.042969 338.574219 259.21875 338.832031 C 258.730469 338.972656 258.363281 339.070312 258.140625 339.125 C 257.980469 339.167969 257.898438 339.1875 257.898438 339.1875"/><path fill="#B67186" d="M 268.28125 360.351562 C 268.28125 360.351562 268.085938 360.316406 267.742188 360.230469 C 267.390625 360.15625 266.90625 360.003906 266.355469 359.734375 C 266.066406 359.617188 265.789062 359.445312 265.484375 359.261719 C 265.179688 359.082031 264.875 358.871094 264.578125 358.625 C 263.960938 358.164062 263.398438 357.5625 262.863281 356.945312 C 262.355469 356.308594 261.890625 355.636719 261.527344 354.964844 C 261.160156 354.300781 260.882812 353.652344 260.679688 353.074219 C 260.269531 351.9375 260.207031 351.117188 260.207031 351.117188 C 260.207031 351.117188 260.640625 351.777344 261.289062 352.777344 C 261.613281 353.261719 261.996094 353.824219 262.414062 354.410156 C 262.835938 354.992188 263.289062 355.613281 263.78125 356.1875 C 264.027344 356.476562 264.253906 356.785156 264.519531 357.042969 C 264.777344 357.3125 265.011719 357.601562 265.277344 357.839844 C 265.527344 358.085938 265.765625 358.339844 266.019531 358.550781 C 266.265625 358.757812 266.484375 358.992188 266.722656 359.160156 C 266.949219 359.332031 267.152344 359.503906 267.339844 359.660156 C 267.535156 359.796875 267.703125 359.914062 267.839844 360.011719 C 268.125 360.230469 268.28125 360.351562 268.28125 360.351562"/><path fill="#B67186" d="M 255.976562 367.667969 C 255.976562 367.667969 255.855469 367.308594 255.675781 366.671875 C 255.503906 366.035156 255.230469 365.128906 254.960938 364.023438 C 254.800781 363.472656 254.738281 362.863281 254.652344 362.214844 C 254.566406 361.570312 254.484375 360.886719 254.394531 360.179688 C 254.296875 359.472656 254.25 358.746094 254.25 357.996094 C 254.238281 357.253906 254.21875 356.492188 254.203125 355.734375 C 254.179688 354.976562 254.269531 354.222656 254.300781 353.480469 C 254.34375 352.734375 254.394531 352 254.464844 351.292969 C 254.65625 349.890625 254.800781 348.574219 255.050781 347.464844 C 255.257812 346.355469 255.503906 345.4375 255.675781 344.796875 C 255.839844 344.160156 255.976562 343.808594 255.976562 343.808594 C 255.976562 343.808594 255.945312 344.183594 255.898438 344.84375 C 255.835938 345.492188 255.796875 346.433594 255.722656 347.558594 C 255.625 348.671875 255.613281 349.984375 255.503906 351.378906 C 255.488281 352.074219 255.46875 352.796875 255.445312 353.53125 C 255.429688 354.257812 255.355469 355.003906 255.394531 355.746094 C 255.394531 356.492188 255.398438 357.234375 255.398438 357.96875 C 255.398438 358.699219 255.375 359.421875 255.441406 360.117188 C 255.472656 360.8125 255.503906 361.488281 255.535156 362.125 C 255.570312 362.761719 255.546875 363.375 255.640625 363.925781 C 255.773438 365.03125 255.835938 365.972656 255.898438 366.628906 C 255.957031 367.28125 255.976562 367.667969 255.976562 367.667969"/><path fill="#BBBAB8" d="M 290.566406 346.21875 L 290.261719 345.847656 C 290.472656 345.523438 290.59375 345.34375 290.59375 345.34375 C 290.59375 345.34375 290.675781 345.460938 290.824219 345.675781 C 290.738281 345.851562 290.648438 346.03125 290.566406 346.21875"/><path fill="#B67186" d="M 290.261719 345.847656 L 290.03125 345.558594 L 289.203125 344.691406 C 288.640625 344.136719 288.054688 343.59375 287.414062 343.132812 C 286.796875 342.667969 286.082031 342.230469 285.4375 341.988281 L 285.257812 341.925781 L 285.167969 341.789062 C 284.175781 340.339844 283.238281 338.871094 282.300781 337.394531 C 281.390625 335.902344 280.449219 334.429688 279.59375 332.898438 L 278.292969 330.617188 L 277.078125 328.289062 C 276.230469 326.757812 275.554688 325.101562 274.816406 323.492188 C 274.457031 322.679688 274.230469 321.847656 273.933594 321.023438 L 273.515625 319.789062 L 273.191406 318.476562 L 272.574219 315.921875 C 272.367188 315.070312 272.15625 314.21875 272.03125 313.339844 C 271.898438 312.460938 271.707031 311.621094 271.613281 310.714844 L 271.507812 309.335938 C 271.492188 309.214844 271.511719 309.113281 271.511719 309 L 271.515625 308.835938 L 271.515625 308.757812 L 271.535156 308.636719 L 271.542969 308.601562 L 271.675781 307.964844 L 272.675781 302.84375 C 272.976562 301.132812 273.304688 299.421875 273.570312 297.703125 C 273.859375 295.988281 274.136719 294.273438 274.378906 292.550781 C 274.65625 290.832031 274.800781 289.121094 275.011719 287.402344 L 275.339844 282.183594 C 275.398438 280.410156 275.757812 278.695312 276.011719 276.964844 C 276.398438 275.257812 276.71875 273.539062 277.1875 271.855469 C 277.613281 270.164062 278.09375 268.484375 278.585938 266.8125 C 279.089844 265.144531 279.632812 263.484375 280.207031 261.839844 C 279.703125 263.507812 279.261719 265.195312 278.804688 266.875 C 278.375 268.558594 277.945312 270.246094 277.589844 271.953125 C 277.179688 273.640625 276.917969 275.363281 276.59375 277.066406 C 276.386719 278.785156 276.058594 280.496094 276.042969 282.21875 C 275.933594 283.925781 275.914062 285.714844 275.824219 287.4375 C 275.652344 289.183594 275.535156 290.949219 275.292969 292.671875 C 275.085938 294.410156 274.859375 296.144531 274.574219 297.863281 C 274.316406 299.59375 273.996094 301.308594 273.707031 303.03125 L 272.742188 308.175781 L 272.613281 308.820312 L 272.609375 308.851562 L 272.601562 308.902344 L 272.601562 309.386719 L 272.714844 310.613281 C 272.804688 311.433594 272.996094 312.300781 273.136719 313.140625 C 273.261719 313.988281 273.476562 314.828125 273.691406 315.667969 L 274.316406 318.1875 L 274.625 319.414062 L 275.050781 320.648438 C 275.347656 321.464844 275.589844 322.316406 275.929688 323.101562 C 276.640625 324.660156 277.261719 326.238281 278.097656 327.769531 L 279.285156 330.078125 L 280.558594 332.34375 C 281.390625 333.867188 282.316406 335.339844 283.210938 336.824219 C 284.101562 338.253906 285.003906 339.683594 285.9375 341.078125 C 286.738281 341.410156 287.375 341.835938 288.019531 342.316406 C 288.703125 342.816406 289.328125 343.394531 289.914062 343.992188 L 290.765625 344.925781 L 291.03125 345.269531 C 290.964844 345.40625 290.894531 345.539062 290.824219 345.675781 C 290.675781 345.460938 290.59375 345.34375 290.59375 345.34375 C 290.59375 345.34375 290.472656 345.523438 290.261719 345.847656"/><path fill="#B67186" d="M 311.75 370.628906 C 311.15625 370.066406 310.523438 369.535156 309.957031 368.945312 L 308.257812 367.167969 C 307.6875 366.574219 307.15625 365.953125 306.597656 365.34375 L 304.953125 363.519531 C 302.78125 361.058594 300.628906 358.582031 298.523438 356.0625 L 295.382812 352.273438 C 294.355469 350.992188 293.292969 349.726562 292.296875 348.425781 C 291.800781 347.789062 291.285156 347.105469 290.789062 346.492188 L 290.566406 346.21875 C 290.648438 346.03125 290.738281 345.851562 290.824219 345.675781 C 290.894531 345.539062 290.964844 345.40625 291.03125 345.269531 L 291.53125 345.921875 L 293.007812 347.898438 C 293.976562 349.222656 294.996094 350.484375 295.992188 351.785156 L 299.046875 355.636719 L 305.25 363.261719 L 306.832031 365.144531 C 307.359375 365.765625 307.871094 366.414062 308.421875 367.015625 L 310.042969 368.867188 C 310.582031 369.480469 311.179688 370.039062 311.75 370.628906"/><path fill="#B67186" d="M 319.832031 360.351562 C 319.832031 360.351562 319.761719 360.214844 319.632812 359.960938 C 319.488281 359.707031 319.34375 359.3125 319.171875 358.804688 C 318.847656 357.789062 318.40625 356.320312 318.03125 354.523438 C 317.652344 352.734375 317.21875 350.644531 316.847656 348.390625 C 316.460938 346.136719 316.132812 343.722656 315.816406 341.304688 C 315.5625 339.136719 315.308594 337.003906 315.160156 334.90625 C 315.097656 335.066406 315.027344 335.222656 314.964844 335.375 C 314.574219 336.339844 314.226562 337.261719 313.910156 338.117188 C 313.265625 339.824219 312.730469 341.246094 312.355469 342.242188 C 311.972656 343.234375 311.75 343.808594 311.75 343.808594 C 311.75 343.808594 311.882812 343.207031 312.136719 342.171875 C 312.40625 341.144531 312.753906 339.65625 313.28125 337.902344 C 313.539062 337.03125 313.824219 336.082031 314.152344 335.078125 C 314.324219 334.578125 314.492188 334.066406 314.714844 333.53125 C 314.769531 333.394531 314.832031 333.265625 314.914062 333.113281 C 314.964844 333.027344 314.984375 332.96875 315.128906 332.824219 C 315.183594 332.78125 315.222656 332.730469 315.375 332.683594 C 315.421875 332.671875 315.46875 332.660156 315.515625 332.660156 C 315.675781 332.660156 315.855469 332.746094 315.945312 332.863281 C 316.085938 333.0625 316.070312 333.136719 316.089844 333.210938 C 316.113281 333.507812 316.132812 333.808594 316.15625 334.113281 C 316.257812 335.203125 316.410156 336.382812 316.546875 337.566406 C 316.695312 338.75 316.84375 339.953125 316.996094 341.15625 C 317.296875 343.570312 317.601562 345.976562 317.882812 348.234375 C 318.179688 350.492188 318.414062 352.605469 318.691406 354.402344 C 318.960938 356.203125 319.167969 357.707031 319.394531 358.746094 C 319.519531 359.253906 319.578125 359.675781 319.691406 359.933594 C 319.78125 360.207031 319.832031 360.351562 319.832031 360.351562"/><path fill="#B67186" d="M 383.675781 369.738281 C 383.675781 369.738281 382.90625 368.398438 381.949219 366.292969 C 381.480469 365.234375 380.960938 363.992188 380.53125 362.582031 C 380.425781 362.230469 380.328125 361.863281 380.25 361.472656 C 380.210938 361.273438 380.179688 361.074219 380.167969 360.839844 C 380.183594 360.613281 380.085938 360.367188 380.429688 359.898438 C 380.566406 359.707031 380.84375 359.640625 381.042969 359.640625 C 381.121094 359.640625 381.191406 359.652344 381.230469 359.667969 C 381.472656 359.71875 381.527344 359.796875 381.671875 359.859375 L 382.128906 360.074219 C 382.265625 360.09375 382.394531 360.117188 382.523438 360.152344 L 383.023438 360.183594 C 383.050781 360.183594 383.074219 360.183594 383.101562 360.183594 C 383.757812 360.183594 384.449219 360.101562 385.105469 359.910156 C 385.792969 359.730469 386.464844 359.492188 387.09375 359.210938 C 388.347656 358.632812 389.429688 357.90625 390.265625 357.171875 C 390.671875 356.792969 391.035156 356.4375 391.324219 356.082031 C 391.640625 355.746094 391.820312 355.390625 392.023438 355.121094 C 392.339844 354.535156 392.519531 354.195312 392.519531 354.195312 C 392.519531 354.195312 392.492188 354.289062 392.449219 354.464844 C 392.394531 354.636719 392.347656 354.902344 392.230469 355.222656 C 392.078125 355.523438 391.953125 355.933594 391.6875 356.332031 C 391.5625 356.535156 391.4375 356.765625 391.285156 356.988281 C 391.117188 357.203125 390.941406 357.421875 390.75 357.65625 C 389.96875 358.554688 388.875 359.449219 387.550781 360.148438 C 386.886719 360.488281 386.183594 360.8125 385.410156 361.015625 C 384.648438 361.25 383.832031 361.371094 382.984375 361.375 C 382.765625 361.355469 382.558594 361.34375 382.335938 361.316406 C 382.09375 361.257812 381.851562 361.195312 381.613281 361.125 L 381.308594 360.964844 C 381.3125 361.074219 381.328125 361.179688 381.339844 361.292969 C 381.386719 361.625 381.457031 361.976562 381.539062 362.3125 C 381.867188 363.675781 382.265625 364.957031 382.585938 366.054688 C 382.914062 367.15625 383.191406 368.078125 383.378906 368.71875 C 383.570312 369.363281 383.675781 369.738281 383.675781 369.738281"/><path fill="#B67186" d="M 443.691406 343.035156 C 443.691406 343.035156 443.445312 342.710938 443.023438 342.113281 C 442.800781 341.828125 442.609375 341.433594 442.34375 341 C 442.078125 340.566406 441.820312 340.054688 441.558594 339.492188 C 441.007812 338.378906 440.46875 337.03125 439.945312 335.570312 C 439.414062 334.117188 438.941406 332.535156 438.488281 330.953125 C 438.058594 329.363281 437.652344 327.761719 437.332031 326.253906 C 437 324.746094 436.730469 323.328125 436.535156 322.109375 C 436.328125 320.894531 436.214844 319.867188 436.117188 319.152344 C 436.03125 318.433594 435.996094 318.019531 435.996094 318.019531 C 435.996094 318.019531 436.121094 318.417969 436.339844 319.105469 C 436.550781 319.792969 436.84375 320.777344 437.199219 321.957031 C 437.886719 324.324219 438.746094 327.484375 439.628906 330.628906 C 440.503906 333.78125 441.40625 336.917969 442.191406 339.234375 C 442.390625 339.8125 442.558594 340.347656 442.742188 340.808594 C 442.929688 341.269531 443.058594 341.691406 443.226562 342.003906 C 443.527344 342.648438 443.691406 343.035156 443.691406 343.035156"/><path fill="#B67186" d="M 398.265625 314.558594 C 398.265625 314.558594 397.742188 310.605469 397.164062 304.648438 C 396.902344 301.671875 396.492188 298.207031 396.246094 294.464844 C 395.980469 290.734375 395.695312 286.75 395.414062 282.769531 C 395.347656 280.777344 395.285156 278.785156 395.21875 276.824219 C 395.191406 275.84375 395.15625 274.871094 395.125 273.910156 C 395.117188 273.421875 395.082031 272.964844 395.089844 272.460938 C 395.105469 271.984375 395.125 271.507812 395.144531 271.039062 C 395.167969 269.152344 395.386719 267.347656 395.558594 265.636719 C 395.765625 263.925781 395.984375 262.320312 396.222656 260.835938 C 396.691406 257.875 397.234375 255.433594 397.609375 253.734375 C 397.996094 252.027344 398.265625 251.066406 398.265625 251.066406 C 398.265625 251.066406 398.113281 252.050781 397.839844 253.777344 C 397.554688 255.496094 397.246094 257.96875 396.882812 260.929688 C 396.707031 262.40625 396.550781 264.015625 396.417969 265.714844 C 396.308594 267.417969 396.195312 269.210938 396.175781 271.066406 C 396.160156 271.527344 396.152344 271.996094 396.136719 272.464844 C 396.136719 272.90625 396.175781 273.40625 396.195312 273.882812 C 396.242188 274.839844 396.28125 275.8125 396.328125 276.792969 C 396.417969 278.753906 396.511719 280.742188 396.597656 282.734375 C 397.050781 290.683594 397.496094 298.636719 397.828125 304.597656 C 397.96875 307.585938 398.085938 310.078125 398.164062 311.816406 C 398.230469 313.5625 398.265625 314.558594 398.265625 314.558594"/><path fill="#BD3345" d="M 521.398438 337.261719 C 521.398438 337.261719 521.40625 336.347656 521.578125 335.011719 C 521.75 333.675781 522.074219 331.910156 522.53125 330.175781 C 522.992188 328.441406 523.554688 326.734375 524.128906 325.5 C 524.390625 324.875 524.664062 324.371094 524.894531 324.035156 C 525.113281 323.695312 525.246094 323.519531 525.246094 323.519531 C 525.246094 323.519531 525.199219 323.742188 525.109375 324.132812 C 525.066406 324.324219 525.011719 324.550781 524.945312 324.8125 C 524.902344 325.082031 524.851562 325.382812 524.78125 325.707031 C 524.636719 326.363281 524.472656 327.125 524.296875 327.941406 C 524.101562 328.75 523.890625 329.613281 523.679688 330.476562 C 523.4375 331.332031 523.21875 332.195312 522.964844 332.996094 C 522.71875 333.796875 522.476562 334.539062 522.242188 335.171875 C 521.792969 336.4375 521.398438 337.261719 521.398438 337.261719"/><path fill="#BD3345" d="M 530.347656 423.84375 C 530.347656 423.84375 530.460938 423.386719 530.714844 422.597656 C 530.972656 421.820312 531.3125 420.6875 531.835938 419.375 C 532.367188 418.0625 532.976562 416.523438 533.8125 414.941406 C 534.242188 414.15625 534.691406 413.339844 535.308594 412.570312 C 535.632812 412.1875 535.945312 411.789062 536.542969 411.488281 C 537.613281 411.183594 537.082031 411.390625 537.492188 410.996094 C 537.945312 410.355469 538.296875 409.472656 538.589844 408.632812 C 538.882812 407.777344 539.160156 406.921875 539.390625 406.085938 C 539.867188 404.410156 540.300781 402.828125 540.628906 401.460938 C 541.320312 398.730469 541.785156 396.90625 541.785156 396.90625 C 541.785156 396.90625 541.765625 397.382812 541.691406 398.203125 C 541.597656 399.015625 541.511719 400.199219 541.289062 401.59375 C 541.058594 402.984375 540.816406 404.621094 540.40625 406.351562 C 540.195312 407.210938 539.976562 408.109375 539.675781 409.003906 C 539.363281 409.902344 539.066406 410.808594 538.441406 411.710938 C 538.347656 411.820312 538.277344 411.933594 538.152344 412.042969 L 537.96875 412.207031 C 537.886719 412.269531 537.765625 412.332031 537.660156 412.382812 C 537.347656 412.507812 537.460938 412.449219 537.15625 412.507812 L 537.03125 412.546875 C 536.785156 412.652344 536.460938 412.972656 536.195312 413.300781 C 535.652344 413.960938 535.160156 414.710938 534.722656 415.457031 C 533.847656 416.949219 533.070312 418.386719 532.445312 419.648438 C 531.1875 422.167969 530.347656 423.84375 530.347656 423.84375"/><path fill="#B67186" d="M 82.015625 425.414062 L 81.855469 425.273438 C 80.726562 424.222656 79.597656 423.167969 78.496094 422.082031 C 77.386719 421.011719 76.269531 419.941406 75.179688 418.84375 C 76.398438 419.796875 77.585938 420.78125 78.785156 421.757812 C 79.929688 422.679688 81.054688 423.625 82.171875 424.574219 C 84.835938 423.5 87.503906 422.425781 90.183594 421.40625 C 92.816406 420.390625 95.460938 419.390625 98.109375 418.410156 C 98.617188 414.621094 99.132812 410.828125 99.730469 407.042969 C 100.042969 405.089844 100.328125 403.140625 100.65625 401.191406 C 101 399.25 101.308594 397.296875 101.6875 395.355469 C 101.554688 397.328125 101.363281 399.296875 101.199219 401.261719 C 101.011719 403.226562 100.800781 405.1875 100.597656 407.15625 C 100.203125 411.082031 99.714844 415 99.230469 418.917969 L 99.183594 419.265625 L 98.847656 419.390625 C 96.097656 420.429688 93.332031 421.441406 90.5625 422.4375 C 87.800781 423.441406 85.015625 424.394531 82.234375 425.339844 L 82.015625 425.414062"/><path fill="#B67186" d="M 163.390625 425.652344 L 163.066406 425.535156 C 159.460938 424.226562 155.894531 422.832031 152.304688 421.476562 C 148.730469 420.09375 145.128906 418.765625 141.5625 417.347656 L 141.351562 417.265625 L 141.289062 417.058594 L 138.371094 407.527344 C 137.4375 404.332031 136.46875 401.15625 135.570312 397.953125 C 136.726562 401.070312 137.808594 404.214844 138.929688 407.34375 L 142.089844 416.558594 C 145.640625 417.8125 149.15625 419.152344 152.691406 420.441406 C 156.179688 421.734375 159.683594 423 163.160156 424.335938 C 167.402344 420.78125 171.59375 417.171875 175.875 413.660156 L 174.347656 404.851562 C 173.859375 401.820312 173.339844 398.789062 172.882812 395.753906 C 173.585938 398.746094 174.222656 401.75 174.886719 404.742188 L 176.777344 413.753906 L 176.828125 413.996094 L 176.632812 414.171875 C 172.347656 417.984375 167.96875 421.679688 163.640625 425.433594 L 163.390625 425.652344"/><path fill="#B67186" d="M 122.492188 424.996094 C 122.492188 424.996094 122.183594 424.628906 121.710938 423.9375 C 121.261719 423.230469 120.578125 422.238281 119.925781 420.945312 C 119.582031 420.3125 119.269531 419.597656 118.90625 418.851562 C 118.585938 418.097656 118.195312 417.304688 117.90625 416.449219 C 117.25 414.769531 116.707031 412.914062 116.257812 411.039062 C 116.011719 410.105469 115.886719 409.144531 115.695312 408.214844 C 115.511719 407.285156 115.453125 406.351562 115.332031 405.453125 C 115.210938 404.5625 115.222656 403.679688 115.175781 402.855469 C 115.117188 402.035156 115.15625 401.246094 115.164062 400.527344 C 115.179688 399.808594 115.175781 399.148438 115.25 398.566406 C 115.308594 397.984375 115.363281 397.480469 115.40625 397.058594 C 115.5 396.226562 115.570312 395.753906 115.570312 395.753906 C 115.570312 395.753906 115.605469 396.234375 115.640625 397.070312 C 115.652344 397.484375 115.671875 397.988281 115.691406 398.570312 C 115.703125 399.152344 115.800781 399.800781 115.835938 400.507812 C 115.886719 401.21875 115.917969 401.988281 116.039062 402.796875 C 116.15625 403.601562 116.230469 404.453125 116.375 405.328125 C 116.523438 406.199219 116.648438 407.105469 116.824219 408.015625 C 117.023438 408.921875 117.164062 409.859375 117.414062 410.765625 C 117.828125 412.605469 118.347656 414.425781 118.890625 416.105469 C 119.433594 417.789062 119.976562 419.355469 120.535156 420.667969 C 121.074219 421.980469 121.550781 423.070312 121.910156 423.820312 C 122.273438 424.574219 122.492188 424.996094 122.492188 424.996094"/><path fill="#B67186" d="M 130.363281 434.007812 L 130.324219 434 L 130.261719 433.972656 L 130.171875 433.898438 L 130.03125 433.75 L 129.796875 433.480469 C 129.652344 433.3125 129.527344 433.167969 129.425781 433.050781 C 129.222656 432.820312 129.117188 432.695312 129.117188 432.695312 C 129.117188 432.695312 129.242188 432.800781 129.46875 433.003906 C 129.585938 433.109375 129.726562 433.234375 129.894531 433.382812 L 129.996094 433.46875 C 129.75 433.085938 129.445312 432.644531 129.140625 432.15625 C 128.714844 431.476562 128.238281 430.707031 127.777344 429.832031 C 126.84375 428.09375 125.824219 426.019531 124.960938 423.707031 C 124.078125 421.390625 123.332031 418.851562 122.765625 416.273438 C 122.222656 413.695312 121.851562 411.074219 121.691406 408.605469 C 121.515625 406.136719 121.578125 403.828125 121.675781 401.863281 C 121.773438 399.890625 122.023438 398.265625 122.179688 397.128906 C 122.355469 395.996094 122.492188 395.355469 122.492188 395.355469 C 122.492188 395.355469 122.464844 396.011719 122.414062 397.152344 C 122.347656 398.296875 122.335938 399.929688 122.34375 401.878906 C 122.351562 403.828125 122.496094 406.101562 122.734375 408.515625 C 122.988281 410.933594 123.371094 413.496094 123.925781 416.023438 C 124.460938 418.554688 125.167969 421.050781 125.945312 423.351562 C 126.722656 425.648438 127.546875 427.769531 128.375 429.535156 C 128.796875 430.414062 129.183594 431.222656 129.527344 431.9375 C 129.875 432.65625 130.214844 433.238281 130.460938 433.792969 L 130.472656 433.917969 L 130.363281 434.007812"/><path fill="#1A3148" d="M 236.933594 434.765625 L 236.136719 434.445312 C 234.285156 433.703125 232.554688 432.78125 230.980469 431.507812 C 230.214844 430.863281 229.453125 430.101562 229.027344 429.03125 L 228.90625 428.691406 C 228.839844 428.472656 228.855469 428.410156 228.828125 428.253906 C 228.796875 428 228.742188 427.726562 228.730469 427.480469 L 228.644531 426.019531 C 228.535156 422.148438 228.535156 418.304688 228.609375 414.457031 C 228.75 406.761719 228.996094 399.066406 229.417969 391.386719 L 229.546875 414.460938 C 229.597656 418.300781 229.570312 422.152344 229.738281 425.96875 C 229.816406 426.917969 229.796875 427.886719 230.082031 428.652344 C 230.378906 429.378906 231.011719 430.046875 231.710938 430.621094 C 232.910156 431.589844 234.328125 432.355469 235.765625 433.003906 L 235.8125 423.269531 C 235.828125 419.726562 235.832031 416.1875 235.902344 412.640625 L 236.066406 402.015625 C 236.160156 398.46875 236.214844 394.925781 236.34375 391.386719 C 236.476562 394.925781 236.53125 398.46875 236.628906 402.015625 L 236.789062 412.640625 C 236.855469 416.1875 236.859375 419.726562 236.878906 423.269531 L 236.929688 433.898438 L 236.933594 434.765625"/><path fill="#1A3148" d="M 195.101562 434.179688 L 195 434.113281 C 192.257812 432.230469 189.503906 430.375 186.777344 428.460938 C 189.589844 430.152344 192.375 431.894531 195.171875 433.613281 L 205.203125 430.007812 C 208.480469 428.816406 211.777344 427.660156 215.074219 426.527344 L 217.480469 412.335938 L 219.976562 398.386719 C 215.199219 397.652344 210.414062 396.898438 205.609375 396.320312 C 203.121094 396.027344 200.628906 395.746094 198.128906 395.539062 C 196.878906 395.449219 195.632812 395.375 194.375 395.359375 C 194.253906 395.359375 194.136719 395.359375 194.015625 395.359375 C 193.507812 395.359375 193.007812 395.375 192.5 395.40625 C 191.882812 395.460938 191.246094 395.503906 190.664062 395.753906 C 191.230469 395.464844 191.867188 395.382812 192.492188 395.289062 C 193.113281 395.207031 193.746094 395.15625 194.371094 395.136719 C 194.945312 395.113281 195.511719 395.109375 196.082031 395.109375 C 196.769531 395.109375 197.460938 395.117188 198.152344 395.140625 C 200.667969 395.214844 203.179688 395.390625 205.683594 395.628906 C 210.695312 396.109375 215.691406 396.667969 220.664062 397.4375 L 221.1875 397.515625 L 221.101562 398.039062 L 218.648438 412.539062 L 216.058594 427.015625 L 216.003906 427.320312 L 215.710938 427.421875 C 212.3125 428.578125 208.898438 429.710938 205.480469 430.8125 L 195.222656 434.140625 L 195.101562 434.179688"/><path fill="#1A3148" d="M 272.167969 434.5625 L 271.804688 434.363281 L 255.6875 425.519531 L 255.476562 425.402344 L 255.40625 425.175781 C 253.875 420.167969 252.410156 415.148438 251.039062 410.09375 C 250.359375 407.570312 249.699219 405.03125 249.117188 402.476562 C 248.828125 401.191406 248.546875 399.910156 248.335938 398.597656 C 248.234375 397.945312 248.144531 397.285156 248.113281 396.601562 C 248.097656 396.25 248.085938 395.914062 248.167969 395.492188 C 248.203125 395.386719 248.226562 395.277344 248.308594 395.132812 C 248.398438 395.007812 248.511719 394.796875 248.871094 394.765625 C 248.902344 394.757812 248.925781 394.757812 248.949219 394.757812 C 249.070312 394.757812 249.054688 394.777344 249.101562 394.78125 L 249.269531 394.820312 L 249.4375 394.863281 C 249.703125 394.890625 249.980469 394.898438 250.261719 394.898438 C 251.21875 394.898438 252.242188 394.773438 253.222656 394.671875 C 254.515625 394.523438 255.804688 394.339844 257.089844 394.140625 C 259.667969 393.746094 262.238281 393.292969 264.8125 392.828125 C 269.953125 391.925781 275.078125 390.902344 280.207031 389.90625 C 275.136719 391.167969 270.035156 392.300781 264.917969 393.398438 C 262.359375 393.929688 259.792969 394.425781 257.214844 394.878906 C 255.921875 395.109375 254.632812 395.316406 253.328125 395.5 C 252.25 395.628906 251.210938 395.796875 250.078125 395.796875 C 249.828125 395.796875 249.574219 395.785156 249.308594 395.769531 L 249.078125 395.71875 C 249.042969 395.941406 249.046875 396.25 249.066406 396.542969 C 249.109375 397.167969 249.207031 397.804688 249.316406 398.4375 C 249.542969 399.703125 249.820312 400.976562 250.117188 402.242188 C 250.714844 404.777344 251.390625 407.292969 252.085938 409.808594 C 253.460938 414.757812 254.9375 419.691406 256.472656 424.59375 L 271.960938 433.234375 L 278.476562 426.417969 L 285.195312 419.476562 L 283.828125 407.710938 L 282.519531 395.753906 L 284.285156 407.652344 L 285.972656 419.566406 L 285.996094 419.738281 L 285.871094 419.875 L 279.183594 427.089844 L 272.445312 434.261719 L 272.167969 434.5625 M 248.855469 395.675781 C 248.851562 395.675781 248.867188 395.679688 248.917969 395.683594 C 248.921875 395.683594 248.921875 395.683594 248.921875 395.683594 C 248.90625 395.679688 248.867188 395.675781 248.855469 395.675781 M 248.898438 395.675781 L 248.929688 395.683594 L 248.917969 395.679688 L 248.898438 395.675781"/><path fill="#BD3345" d="M 347.140625 492.722656 C 347.140625 492.722656 346.972656 491.222656 346.753906 488.585938 C 346.554688 485.953125 346.238281 482.1875 346.132812 477.652344 C 346.089844 475.378906 346.054688 472.921875 346.289062 470.300781 C 346.375 469.640625 346.433594 468.972656 346.625 468.28125 C 346.753906 467.644531 346.976562 466.976562 347.0625 466.328125 C 347.292969 465.046875 347.488281 463.648438 347.660156 462.257812 C 348.328125 456.664062 348.765625 450.640625 349.039062 444.625 C 349.171875 441.632812 349.320312 438.597656 349.160156 435.691406 C 349.125 435.34375 349.121094 434.957031 349.058594 434.644531 L 348.960938 434.199219 C 348.910156 433.972656 348.851562 433.835938 348.789062 433.648438 L 348.617188 433.125 L 348.519531 432.472656 C 348.480469 432.253906 348.484375 432.035156 348.515625 431.820312 C 348.554688 431.605469 348.542969 431.378906 348.628906 431.183594 C 348.867188 430.34375 349.355469 429.738281 349.773438 429.140625 C 350.210938 428.558594 350.628906 427.996094 351.03125 427.429688 C 351.089844 427.242188 351.320312 426.808594 351.382812 426.53125 L 351.605469 425.609375 C 351.726562 424.9375 351.847656 424.273438 351.972656 423.617188 C 352.183594 422.285156 352.359375 420.96875 352.511719 419.679688 C 352.808594 417.109375 353.050781 414.675781 353.242188 412.421875 C 353.625 407.914062 353.953125 404.152344 354.136719 401.515625 C 354.332031 398.917969 354.449219 397.417969 354.453125 397.375 C 354.449219 397.417969 354.421875 398.925781 354.371094 401.527344 C 354.277344 404.171875 354.195312 407.945312 353.910156 412.46875 C 353.78125 414.730469 353.601562 417.179688 353.375 419.773438 C 353.253906 421.070312 353.117188 422.398438 352.933594 423.761719 C 352.835938 424.445312 352.730469 425.125 352.589844 425.835938 L 352.316406 426.945312 C 352.273438 427.140625 352.195312 427.289062 352.128906 427.457031 L 352.027344 427.699219 L 351.976562 427.824219 L 351.949219 427.882812 L 351.933594 427.910156 C 351.898438 427.984375 351.890625 428 351.890625 428 C 351.890625 428 351.890625 428 351.890625 427.996094 C 351.890625 427.996094 351.890625 428 351.882812 428.003906 C 351.109375 429.207031 350.027344 430.324219 349.652344 431.472656 C 349.59375 431.617188 349.617188 431.769531 349.589844 431.914062 C 349.5625 432.0625 349.554688 432.207031 349.59375 432.351562 L 349.648438 432.789062 L 349.824219 433.308594 C 349.878906 433.476562 349.964844 433.675781 349.988281 433.808594 L 350.140625 434.445312 C 350.222656 434.859375 350.226562 435.21875 350.273438 435.609375 C 350.457031 438.640625 350.335938 441.652344 350.226562 444.679688 C 349.902344 450.726562 349.40625 456.753906 348.679688 462.386719 C 348.488281 463.804688 348.3125 465.167969 348.007812 466.558594 C 347.886719 467.257812 347.664062 467.871094 347.507812 468.53125 C 347.328125 469.125 347.242188 469.769531 347.144531 470.398438 C 346.847656 472.933594 346.816406 475.394531 346.796875 477.648438 C 346.796875 482.164062 346.878906 485.9375 346.984375 488.578125 C 347.085938 491.21875 347.140625 492.722656 347.140625 492.722656"/><path fill="#BD3345" d="M 348.296875 423.460938 C 348.296875 423.460938 348.277344 422.988281 348.246094 422.164062 C 348.238281 421.753906 348.222656 421.261719 348.214844 420.695312 C 348.167969 420.125 348.09375 419.480469 348.054688 418.785156 C 348.007812 418.082031 347.957031 417.324219 347.902344 416.523438 C 347.820312 415.726562 347.726562 414.878906 347.664062 414.007812 C 347.527344 412.253906 347.371094 410.390625 347.222656 408.527344 C 347.09375 406.65625 346.964844 404.789062 346.84375 403.039062 C 346.75 401.28125 346.667969 399.640625 346.59375 398.234375 C 346.46875 395.453125 346.457031 393.578125 346.457031 393.542969 C 346.460938 393.5625 346.566406 394.015625 346.703125 394.8125 C 346.832031 395.625 347.070312 396.777344 347.257812 398.171875 C 347.4375 399.570312 347.703125 401.191406 347.882812 402.945312 C 348.082031 404.691406 348.265625 406.558594 348.410156 408.433594 C 348.472656 409.371094 348.535156 410.304688 348.597656 411.230469 C 348.664062 412.152344 348.675781 413.066406 348.710938 413.945312 C 348.792969 415.707031 348.757812 417.355469 348.726562 418.769531 C 348.714844 419.476562 348.695312 420.121094 348.65625 420.695312 C 348.585938 421.269531 348.523438 421.765625 348.472656 422.179688 C 348.371094 423 348.296875 423.460938 348.296875 423.460938"/><path fill="#1A3148" d="M 472.125 426.15625 C 472.125 426.15625 471.824219 425.320312 471.292969 423.855469 C 471.007812 423.125 470.8125 422.199219 470.523438 421.152344 C 470.386719 420.625 470.242188 420.066406 470.089844 419.476562 C 469.980469 418.875 469.859375 418.25 469.734375 417.59375 C 469.605469 416.933594 469.476562 416.25 469.347656 415.542969 C 469.242188 414.832031 469.128906 414.09375 469.015625 413.339844 C 468.777344 411.824219 468.566406 410.226562 468.417969 408.5625 C 468.238281 406.902344 468.105469 405.1875 467.972656 403.441406 C 467.820312 401.699219 467.738281 399.921875 467.628906 398.148438 C 467.480469 394.59375 467.410156 391.042969 467.367188 387.710938 C 467.339844 384.375 467.417969 381.265625 467.480469 378.605469 C 467.539062 375.941406 467.6875 373.722656 467.757812 372.171875 C 467.851562 370.621094 467.925781 369.738281 467.925781 369.738281 C 467.925781 369.738281 468.015625 373.28125 468.148438 378.609375 C 468.21875 381.265625 468.304688 384.367188 468.398438 387.691406 C 468.488281 391.011719 468.613281 394.554688 468.8125 398.09375 C 468.902344 399.859375 468.953125 401.628906 469.078125 403.367188 C 469.1875 405.105469 469.285156 406.820312 469.449219 408.46875 C 469.59375 410.121094 469.710938 411.71875 469.882812 413.230469 C 469.957031 413.988281 470.03125 414.726562 470.101562 415.4375 C 470.203125 416.144531 470.300781 416.828125 470.394531 417.480469 C 470.570312 418.796875 470.742188 420 470.960938 421.054688 C 471.164062 422.113281 471.285156 423.054688 471.515625 423.789062 C 471.90625 425.296875 472.125 426.15625 472.125 426.15625"/><path fill="#1A3148" d="M 465.621094 418.457031 C 465.621094 418.457031 465.375 417.695312 464.949219 416.363281 C 464.722656 415.699219 464.523438 414.871094 464.300781 413.921875 C 464.070312 412.972656 463.800781 411.902344 463.625 410.714844 C 463.414062 409.53125 463.171875 408.246094 462.996094 406.886719 C 462.800781 405.523438 462.585938 404.082031 462.457031 402.589844 C 462.121094 399.605469 461.914062 396.414062 461.746094 393.222656 C 461.664062 391.621094 461.625 390.023438 461.570312 388.453125 C 461.507812 386.878906 461.519531 385.328125 461.496094 383.832031 C 461.472656 380.835938 461.546875 378.042969 461.597656 375.644531 C 461.652344 373.25 461.789062 371.257812 461.859375 369.855469 C 461.9375 368.527344 462 367.742188 462.011719 367.671875 C 462.015625 367.828125 462.117188 370.976562 462.265625 375.644531 C 462.34375 378.039062 462.4375 380.824219 462.539062 383.808594 C 462.65625 386.796875 462.757812 389.980469 462.9375 393.160156 C 463.003906 394.753906 463.078125 396.34375 463.191406 397.90625 C 463.285156 399.472656 463.378906 401.011719 463.503906 402.492188 C 463.730469 405.46875 463.957031 408.246094 464.28125 410.609375 C 464.417969 411.796875 464.589844 412.875 464.734375 413.832031 C 464.878906 414.796875 465.003906 415.632812 465.175781 416.304688 C 465.457031 417.671875 465.621094 418.457031 465.621094 418.457031"/><path fill="#1A3148" d="M 434.226562 386.085938 C 432.78125 386.085938 431.351562 386.058594 430 385.992188 C 428.332031 385.933594 426.773438 385.851562 425.441406 385.757812 C 424.109375 385.671875 422.996094 385.550781 422.222656 385.492188 C 421.441406 385.421875 421 385.363281 421 385.363281 C 421 385.363281 421.441406 385.316406 422.222656 385.265625 C 423.003906 385.222656 424.113281 385.128906 425.449219 385.078125 C 426.785156 385.019531 428.34375 384.972656 430.011719 384.949219 C 431.675781 384.933594 433.457031 384.910156 435.230469 384.894531 C 435.765625 384.886719 436.300781 384.886719 436.828125 384.886719 C 439.824219 384.886719 442.730469 384.953125 445 385.058594 C 446.339844 385.117188 447.453125 385.214844 448.234375 385.261719 C 449.015625 385.316406 449.464844 385.363281 449.464844 385.363281 C 449.464844 385.363281 449.023438 385.421875 448.25 385.488281 C 447.472656 385.546875 446.363281 385.664062 445.03125 385.742188 C 442.367188 385.917969 438.800781 386.050781 435.230469 386.082031 C 434.894531 386.085938 434.5625 386.085938 434.226562 386.085938"/><path fill="#1A3148" d="M 489.703125 385.789062 C 488.285156 385.789062 487.105469 385.679688 486.265625 385.589844 C 485.359375 385.484375 484.851562 385.363281 484.851562 385.363281 C 484.851562 385.363281 485.039062 385.371094 485.375 385.371094 C 485.609375 385.371094 485.910156 385.367188 486.277344 385.355469 C 487.179688 385.351562 488.464844 385.242188 490.003906 385.121094 C 491.542969 384.996094 493.324219 384.75 495.246094 384.503906 C 497.152344 384.242188 499.199219 383.964844 501.234375 383.648438 C 505.316406 383.027344 509.402344 382.414062 512.464844 381.949219 C 513.996094 381.707031 515.285156 381.558594 516.175781 381.421875 C 516.402344 381.386719 516.601562 381.359375 516.773438 381.335938 L 516.90625 381.324219 L 516.933594 381.320312 L 516.941406 381.320312 C 516.941406 381.3125 516.941406 381.308594 516.941406 381.308594 C 516.941406 381.308594 516.941406 381.308594 516.941406 381.320312 L 516.945312 381.320312 C 516.964844 381.417969 516.96875 381.433594 516.96875 381.433594 C 516.96875 381.433594 516.96875 381.429688 516.96875 381.425781 C 516.964844 381.421875 516.964844 381.417969 516.964844 381.417969 C 516.964844 381.417969 516.964844 381.417969 516.964844 381.421875 C 516.964844 381.421875 516.964844 381.425781 516.964844 381.425781 L 516.964844 381.429688 L 516.957031 381.429688 L 516.929688 381.4375 L 516.808594 381.476562 C 516.636719 381.523438 516.445312 381.582031 516.226562 381.644531 C 515.347656 381.882812 514.101562 382.257812 512.59375 382.605469 C 511.078125 382.960938 509.316406 383.390625 507.40625 383.769531 C 505.503906 384.152344 503.457031 384.503906 501.410156 384.824219 C 499.355469 385.117188 497.296875 385.386719 495.355469 385.542969 C 493.417969 385.71875 491.59375 385.769531 490.035156 385.785156 C 489.921875 385.789062 489.8125 385.789062 489.703125 385.789062"/><path fill="#B67186" d="M 381.378906 370.628906 C 381.378906 370.628906 381.082031 369.765625 380.261719 368.433594 C 379.457031 367.121094 378.066406 365.335938 375.890625 363.976562 C 375.351562 363.632812 374.753906 363.347656 374.125 363.085938 C 373.777344 362.960938 373.542969 362.871094 373.09375 362.691406 C 372.746094 362.542969 372.398438 362.398438 372.039062 362.25 C 371.679688 362.09375 371.320312 361.945312 370.953125 361.792969 C 370.585938 361.617188 370.21875 361.375 369.839844 361.167969 C 369.078125 360.734375 368.3125 360.265625 367.648438 359.71875 C 366.941406 359.199219 366.230469 358.660156 365.582031 358.050781 L 364.566406 357.160156 L 363.617188 356.203125 C 362.339844 354.9375 361.125 353.503906 359.949219 352.3125 L 359.445312 351.777344 C 359.285156 351.601562 359.152344 351.476562 358.972656 351.257812 C 358.785156 350.996094 358.539062 350.605469 358.507812 350.527344 L 358.5 350.511719 L 358.488281 350.511719 L 358.351562 350.457031 L 358.074219 350.382812 C 357.882812 350.335938 357.714844 350.277344 357.488281 350.234375 L 356.214844 349.972656 C 354.496094 349.667969 352.734375 349.296875 351.046875 348.742188 C 347.722656 347.664062 344.855469 346.03125 342.691406 344.28125 C 341.605469 343.402344 340.710938 342.492188 339.992188 341.621094 C 339.632812 341.183594 339.332031 340.753906 339.046875 340.359375 C 338.800781 339.941406 338.574219 339.554688 338.367188 339.207031 C 338.011719 338.484375 337.769531 337.910156 337.652344 337.496094 C 337.519531 337.089844 337.449219 336.878906 337.449219 336.878906 C 337.449219 336.878906 337.558594 337.074219 337.769531 337.441406 C 337.957031 337.820312 338.328125 338.316406 338.769531 338.953125 C 339.015625 339.246094 339.292969 339.578125 339.589844 339.933594 C 339.929688 340.261719 340.253906 340.636719 340.65625 340.996094 C 341.445312 341.71875 342.402344 342.453125 343.492188 343.175781 C 344.605469 343.875 345.855469 344.550781 347.21875 345.167969 C 348.585938 345.777344 350.085938 346.292969 351.648438 346.734375 C 353.183594 347.179688 354.871094 347.402344 356.636719 347.714844 C 357.566406 347.921875 358.300781 347.941406 359.550781 348.429688 C 359.722656 348.515625 359.871094 348.5625 360.09375 348.785156 L 360.367188 349.082031 C 360.464844 349.199219 360.460938 349.222656 360.507812 349.292969 C 360.683594 349.613281 360.703125 349.589844 360.753906 349.703125 C 360.855469 349.835938 361.046875 350.019531 361.191406 350.179688 L 361.617188 350.621094 C 362.953125 352.015625 364.039062 353.351562 365.261719 354.601562 C 365.855469 355.234375 366.460938 355.84375 367.066406 356.421875 C 367.664062 357.03125 368.292969 357.554688 368.925781 358.066406 C 369.539062 358.625 370.183594 359.03125 370.796875 359.464844 C 371.113281 359.675781 371.398438 359.910156 371.734375 360.101562 C 372.085938 360.28125 372.433594 360.464844 372.777344 360.640625 C 373.121094 360.816406 373.460938 360.988281 373.796875 361.160156 C 374.140625 361.328125 374.472656 361.492188 374.800781 361.648438 C 375.476562 362.019531 376.113281 362.421875 376.671875 362.867188 C 378.933594 364.636719 380.09375 366.753906 380.679688 368.226562 C 381.28125 369.71875 381.378906 370.628906 381.378906 370.628906"/><path fill="#B67186" d="M 324.367188 327.261719 C 323.945312 326.390625 323.476562 325.558594 323.003906 324.742188 C 322.515625 323.929688 322.023438 323.125 321.472656 322.371094 C 321.214844 321.976562 320.914062 321.652344 320.644531 321.289062 C 320.386719 320.933594 320.042969 320.589844 319.714844 320.246094 L 319.21875 319.730469 L 318.738281 319.285156 C 318.445312 319.019531 318.144531 318.742188 317.871094 318.550781 C 317.796875 318.792969 317.710938 319.113281 317.648438 319.414062 L 317.335938 320.808594 C 317.214844 321.300781 317.15625 321.699219 316.960938 322.285156 C 316.886719 322.546875 316.78125 322.828125 316.621094 323.121094 C 316.507812 323.398438 316.25 323.710938 315.992188 323.988281 C 315.671875 324.269531 315.273438 324.523438 314.78125 324.601562 C 314.640625 324.628906 314.507812 324.640625 314.371094 324.640625 C 314.054688 324.640625 313.753906 324.578125 313.507812 324.492188 C 312.796875 324.234375 312.328125 323.855469 311.898438 323.472656 C 311.476562 323.082031 311.144531 322.707031 310.785156 322.226562 L 310.132812 321.359375 L 311.011719 320.621094 C 311.714844 320.027344 312.457031 319.382812 313.101562 318.710938 C 313.75 318.042969 314.359375 317.308594 314.714844 316.636719 C 314.777344 316.488281 314.882812 316.304688 314.886719 316.207031 L 314.917969 316.097656 L 315.003906 316.183594 L 314.933594 316.03125 C 314.863281 316.011719 314.761719 315.992188 314.664062 315.976562 C 314.394531 315.9375 314.101562 315.925781 313.785156 315.925781 C 313.207031 315.925781 312.570312 315.976562 311.949219 316.03125 C 310.027344 316.242188 308.066406 316.582031 306.117188 316.941406 L 300.210938 318.019531 C 302.035156 317.167969 303.917969 316.464844 305.8125 315.796875 C 307.402344 315.265625 309.003906 314.769531 310.660156 314.390625 C 310.664062 314.40625 310.671875 314.425781 310.679688 314.441406 C 310.851562 315.019531 310.964844 315.332031 310.964844 315.332031 C 310.964844 315.332031 311.050781 314.988281 311.152344 314.425781 C 311.160156 314.378906 311.171875 314.328125 311.179688 314.273438 C 311.34375 314.242188 311.507812 314.210938 311.671875 314.175781 C 312.503906 314.015625 313.328125 313.867188 314.261719 313.867188 C 314.472656 313.867188 314.691406 313.875 314.917969 313.894531 C 315.242188 313.9375 315.5625 313.953125 316.003906 314.171875 C 316.109375 314.230469 316.207031 314.265625 316.339844 314.378906 L 316.519531 314.535156 L 316.601562 314.621094 L 316.621094 314.640625 L 316.628906 314.652344 C 316.640625 314.664062 316.644531 314.671875 316.644531 314.671875 C 316.644531 314.671875 316.640625 314.660156 316.632812 314.65625 C 316.628906 314.648438 316.625 314.640625 316.625 314.640625 C 316.625 314.640625 316.648438 314.679688 316.75 314.832031 L 316.765625 314.855469 L 316.945312 315.179688 C 317.027344 315.394531 317.105469 315.730469 317.125 316.007812 C 317.144531 316.269531 317.105469 316.390625 317.082031 316.5625 C 317.253906 316.496094 317.441406 316.464844 317.632812 316.464844 C 317.664062 316.464844 317.703125 316.464844 317.738281 316.46875 C 318.320312 316.570312 318.605469 316.8125 318.828125 316.988281 C 319.292969 317.367188 319.609375 317.730469 319.945312 318.09375 L 320.460938 318.679688 L 320.886719 319.257812 C 321.164062 319.644531 321.457031 320.015625 321.707031 320.476562 C 321.957031 320.914062 322.261719 321.335938 322.453125 321.78125 C 323.324219 323.535156 323.980469 325.375 324.367188 327.261719 M 313.414062 321.679688 C 313.441406 321.707031 313.46875 321.730469 313.5 321.757812 C 313.773438 322.023438 314.074219 322.230469 314.265625 322.300781 C 314.382812 322.324219 314.390625 322.339844 314.390625 322.339844 C 314.390625 322.339844 314.386719 322.328125 314.433594 322.316406 C 314.484375 322.226562 314.5625 322.191406 314.632812 322.023438 C 314.714844 321.902344 314.789062 321.738281 314.855469 321.550781 C 314.996094 321.238281 315.125 320.699219 315.257812 320.269531 L 315.457031 319.5625 C 315.242188 319.824219 315.015625 320.070312 314.789062 320.316406 C 314.339844 320.796875 313.886719 321.242188 313.414062 321.679688 M 317.527344 318.351562 C 317.527344 318.351562 317.53125 318.351562 317.53125 318.355469 C 317.53125 318.351562 317.527344 318.351562 317.527344 318.351562 M 314.988281 316.054688 L 315 316.066406 L 315.023438 316.074219 C 315.023438 316.070312 315.007812 316.066406 314.988281 316.054688"/><path fill="#B67186" d="M 310.964844 315.332031 C 310.964844 315.332031 310.851562 315.019531 310.679688 314.441406 C 310.671875 314.425781 310.664062 314.40625 310.660156 314.390625 C 310.574219 314.109375 310.515625 313.773438 310.464844 313.382812 C 310.398438 312.96875 310.335938 312.5 310.339844 311.992188 C 310.320312 311.488281 310.300781 310.929688 310.355469 310.355469 C 310.386719 309.777344 310.421875 309.164062 310.527344 308.542969 C 310.613281 307.882812 310.730469 307.210938 310.875 306.53125 C 311.480469 306.945312 312.167969 307.332031 312.945312 307.695312 C 312.820312 308.125 312.699219 308.554688 312.582031 308.972656 C 312.257812 310.128906 311.957031 311.210938 311.695312 312.136719 C 311.472656 312.992188 311.285156 313.726562 311.179688 314.273438 C 311.171875 314.328125 311.160156 314.378906 311.152344 314.425781 C 311.050781 314.988281 310.964844 315.332031 310.964844 315.332031 M 313.175781 306.875 C 312.421875 304.960938 312.183594 303.277344 312.265625 301.820312 C 312.375 301.550781 312.476562 301.285156 312.574219 301.023438 C 313.039062 299.871094 313.53125 298.820312 314.007812 297.941406 C 314.933594 296.175781 315.792969 295.101562 315.792969 295.101562 C 315.789062 295.101562 315.675781 296.464844 315.285156 298.398438 C 315.105469 299.371094 314.859375 300.484375 314.5625 301.667969 C 314.285156 302.851562 313.953125 304.101562 313.613281 305.34375 C 313.464844 305.859375 313.320312 306.371094 313.175781 306.875"/><path fill="#1A3148" d="M 312.945312 307.695312 C 312.167969 307.332031 311.480469 306.945312 310.875 306.53125 C 311.003906 305.921875 311.15625 305.316406 311.320312 304.710938 C 311.496094 304.070312 311.699219 303.4375 311.90625 302.820312 C 312.011719 302.476562 312.140625 302.144531 312.265625 301.820312 C 312.183594 303.277344 312.421875 304.960938 313.175781 306.875 C 313.097656 307.148438 313.019531 307.425781 312.945312 307.695312"/><path fill="#BD3345" d="M 397.46875 400.691406 C 397.347656 400.691406 397.226562 400.691406 397.105469 400.683594 C 395.882812 400.625 394.703125 400.300781 393.863281 399.859375 C 393.019531 399.453125 392.519531 398.953125 392.519531 398.953125 C 392.519531 398.953125 393.164062 398.667969 394.058594 398.515625 C 394.769531 398.363281 395.640625 398.292969 396.523438 398.292969 C 396.75 398.292969 396.984375 398.296875 397.210938 398.304688 C 398.328125 398.355469 399.40625 398.511719 400.25 398.683594 C 400.664062 398.753906 401.039062 398.839844 401.308594 398.871094 C 401.582031 398.914062 401.765625 398.953125 401.765625 398.953125 C 401.765625 398.953125 401.675781 399.089844 401.472656 399.320312 C 401.269531 399.546875 400.925781 399.808594 400.484375 400.03125 C 399.683594 400.460938 398.570312 400.691406 397.46875 400.691406"/><path fill="#BD3345" d="M 388.613281 404.785156 C 388.292969 404.785156 387.96875 404.78125 387.644531 404.769531 C 386.578125 404.757812 385.496094 404.707031 384.40625 404.671875 C 383.324219 404.609375 382.242188 404.542969 381.179688 404.476562 C 380.109375 404.414062 379.070312 404.289062 378.054688 404.199219 C 376.03125 404 374.144531 403.75 372.535156 403.488281 C 369.3125 402.992188 367.183594 402.429688 367.183594 402.429688 C 367.1875 402.429688 369.375 402.195312 372.625 402.132812 C 373.558594 402.101562 374.585938 402.09375 375.667969 402.09375 C 376.472656 402.09375 377.3125 402.097656 378.175781 402.109375 C 379.191406 402.136719 380.234375 402.132812 381.296875 402.1875 C 382.363281 402.222656 383.441406 402.257812 384.519531 402.292969 C 385.59375 402.347656 386.675781 402.4375 387.730469 402.476562 C 388.792969 402.507812 389.832031 402.609375 390.84375 402.671875 C 391.851562 402.746094 392.824219 402.820312 393.75 402.886719 C 394.671875 402.945312 395.546875 403.027344 396.355469 403.105469 C 397.976562 403.289062 399.3125 403.335938 400.265625 403.445312 C 401.210938 403.539062 401.765625 403.617188 401.765625 403.617188 C 401.765625 403.617188 401.234375 403.738281 400.292969 403.921875 C 399.355469 404.078125 397.988281 404.375 396.363281 404.472656 C 394.753906 404.609375 392.863281 404.765625 390.851562 404.765625 C 390.832031 404.765625 390.808594 404.765625 390.785156 404.765625 C 390.773438 404.765625 390.753906 404.765625 390.738281 404.765625 C 390.390625 404.765625 390.039062 404.769531 389.683594 404.777344 C 389.328125 404.78125 388.96875 404.785156 388.613281 404.785156"/><path fill="#BD3345" d="M 314.15625 397.390625 C 312.554688 397.390625 310.960938 397.316406 309.460938 397.238281 C 308.597656 397.195312 307.761719 397.082031 306.96875 397 C 306.179688 396.921875 305.433594 396.820312 304.746094 396.722656 C 304.058594 396.632812 303.429688 396.46875 302.878906 396.359375 C 302.320312 396.242188 301.839844 396.117188 301.445312 396.023438 C 300.65625 395.820312 300.210938 395.683594 300.210938 395.683594 C 300.210938 395.683594 300.679688 395.625 301.492188 395.550781 C 302.300781 395.476562 303.449219 395.414062 304.816406 395.355469 C 306.195312 395.242188 307.789062 395.183594 309.492188 395.140625 C 310.347656 395.113281 311.234375 395.050781 312.132812 395.042969 C 313.027344 395.035156 313.941406 395.019531 314.851562 395.007812 C 315.324219 394.996094 315.796875 394.992188 316.265625 394.992188 C 317.613281 394.992188 318.945312 395.019531 320.214844 395.039062 C 321.929688 395.074219 323.539062 395.144531 324.914062 395.234375 C 327.664062 395.402344 329.519531 395.683594 329.523438 395.683594 C 329.523438 395.683594 327.714844 396.195312 324.972656 396.589844 C 323.601562 396.8125 322 396.996094 320.277344 397.128906 C 318.558594 397.285156 316.71875 397.347656 314.875 397.382812 C 314.636719 397.386719 314.394531 397.390625 314.15625 397.390625"/><path fill="#BD3345" d="M 315.933594 401.511719 C 315.636719 401.511719 315.332031 401.507812 315.035156 401.496094 C 314.292969 401.457031 313.554688 401.425781 312.824219 401.386719 C 312.09375 401.359375 311.390625 401.242188 310.695312 401.171875 C 309.316406 401.015625 308.039062 400.796875 306.945312 400.546875 C 304.761719 400.085938 303.355469 399.519531 303.355469 399.519531 C 303.359375 399.519531 304.859375 399.296875 307.0625 399.1875 C 307.617188 399.160156 308.210938 399.128906 308.839844 399.128906 C 309.378906 399.109375 309.945312 399.082031 310.519531 399.082031 C 310.617188 399.082031 310.714844 399.082031 310.816406 399.085938 C 311.054688 399.085938 311.300781 399.085938 311.546875 399.085938 C 311.757812 399.085938 311.964844 399.085938 312.179688 399.085938 C 312.390625 399.085938 312.605469 399.085938 312.824219 399.085938 C 313.574219 399.085938 314.328125 399.089844 315.085938 399.113281 C 315.816406 399.15625 316.535156 399.15625 317.246094 399.171875 C 317.964844 399.175781 318.664062 399.234375 319.34375 399.257812 C 320.027344 399.304688 320.671875 399.292969 321.292969 399.320312 C 321.917969 399.328125 322.507812 399.367188 323.054688 399.402344 C 323.28125 399.425781 323.496094 399.429688 323.707031 399.429688 C 323.808594 399.429688 323.910156 399.429688 324.007812 399.429688 C 324.105469 399.425781 324.203125 399.425781 324.296875 399.425781 C 324.378906 399.425781 324.464844 399.425781 324.542969 399.429688 C 324.582031 399.429688 324.628906 399.429688 324.671875 399.429688 C 325.0625 399.429688 325.410156 399.449219 325.703125 399.457031 C 326.359375 399.488281 326.746094 399.519531 326.746094 399.519531 C 326.746094 399.519531 326.410156 399.675781 325.796875 399.917969 C 325.488281 400.039062 325.117188 400.1875 324.675781 400.332031 C 324.238281 400.46875 323.742188 400.683594 323.191406 400.765625 C 322.640625 400.875 322.046875 400.996094 321.40625 401.089844 C 320.773438 401.183594 320.09375 401.339844 319.398438 401.355469 C 318.292969 401.425781 317.113281 401.511719 315.933594 401.511719"/></svg>